G04 #@! TF.GenerationSoftware,KiCad,Pcbnew,(7.0.0)*
G04 #@! TF.CreationDate,2023-03-11T22:05:33-05:00*
G04 #@! TF.ProjectId,MacroPad,4d616372-6f50-4616-942e-6b696361645f,rev?*
G04 #@! TF.SameCoordinates,Original*
G04 #@! TF.FileFunction,Legend,Bot*
G04 #@! TF.FilePolarity,Positive*
%FSLAX46Y46*%
G04 Gerber Fmt 4.6, Leading zero omitted, Abs format (unit mm)*
G04 Created by KiCad (PCBNEW (7.0.0)) date 2023-03-11 22:05:33*
%MOMM*%
%LPD*%
G01*
G04 APERTURE LIST*
G04 Aperture macros list*
%AMRoundRect*
0 Rectangle with rounded corners*
0 $1 Rounding radius*
0 $2 $3 $4 $5 $6 $7 $8 $9 X,Y pos of 4 corners*
0 Add a 4 corners polygon primitive as box body*
4,1,4,$2,$3,$4,$5,$6,$7,$8,$9,$2,$3,0*
0 Add four circle primitives for the rounded corners*
1,1,$1+$1,$2,$3*
1,1,$1+$1,$4,$5*
1,1,$1+$1,$6,$7*
1,1,$1+$1,$8,$9*
0 Add four rect primitives between the rounded corners*
20,1,$1+$1,$2,$3,$4,$5,0*
20,1,$1+$1,$4,$5,$6,$7,0*
20,1,$1+$1,$6,$7,$8,$9,0*
20,1,$1+$1,$8,$9,$2,$3,0*%
G04 Aperture macros list end*
%ADD10C,0.153000*%
%ADD11C,0.250000*%
%ADD12C,0.150000*%
%ADD13C,0.120000*%
%ADD14C,2.700000*%
%ADD15C,1.750000*%
%ADD16C,3.000000*%
%ADD17C,3.987800*%
%ADD18R,2.550000X2.500000*%
%ADD19C,1.700000*%
%ADD20R,1.700000X1.700000*%
%ADD21R,1.800000X1.100000*%
%ADD22RoundRect,0.225000X0.375000X-0.225000X0.375000X0.225000X-0.375000X0.225000X-0.375000X-0.225000X0*%
%ADD23RoundRect,0.250000X-0.262500X-0.450000X0.262500X-0.450000X0.262500X0.450000X-0.262500X0.450000X0*%
%ADD24RoundRect,0.250000X-0.475000X0.250000X-0.475000X-0.250000X0.475000X-0.250000X0.475000X0.250000X0*%
%ADD25RoundRect,0.250000X0.250000X0.475000X-0.250000X0.475000X-0.250000X-0.475000X0.250000X-0.475000X0*%
%ADD26RoundRect,0.250000X0.475000X-0.250000X0.475000X0.250000X-0.475000X0.250000X-0.475000X-0.250000X0*%
%ADD27RoundRect,0.250000X0.262500X0.450000X-0.262500X0.450000X-0.262500X-0.450000X0.262500X-0.450000X0*%
%ADD28RoundRect,0.250000X-0.450000X0.262500X-0.450000X-0.262500X0.450000X-0.262500X0.450000X0.262500X0*%
%ADD29R,2.100000X1.800000*%
%ADD30R,1.500000X0.550000*%
%ADD31R,0.550000X1.500000*%
%ADD32C,0.650000*%
%ADD33R,0.600000X2.450000*%
%ADD34R,0.300000X2.450000*%
%ADD35R,0.700000X1.000000*%
%ADD36R,0.700000X0.600000*%
%ADD37RoundRect,0.250001X0.624999X-0.462499X0.624999X0.462499X-0.624999X0.462499X-0.624999X-0.462499X0*%
G04 APERTURE END LIST*
D10*
X152554913Y-58688961D02*
X152412056Y-58736580D01*
X152412056Y-58736580D02*
X152173961Y-58736580D01*
X152173961Y-58736580D02*
X152078723Y-58688961D01*
X152078723Y-58688961D02*
X152031104Y-58641342D01*
X152031104Y-58641342D02*
X151983485Y-58546104D01*
X151983485Y-58546104D02*
X151983485Y-58450866D01*
X151983485Y-58450866D02*
X152031104Y-58355628D01*
X152031104Y-58355628D02*
X152078723Y-58308009D01*
X152078723Y-58308009D02*
X152173961Y-58260390D01*
X152173961Y-58260390D02*
X152364437Y-58212771D01*
X152364437Y-58212771D02*
X152459675Y-58165152D01*
X152459675Y-58165152D02*
X152507294Y-58117533D01*
X152507294Y-58117533D02*
X152554913Y-58022295D01*
X152554913Y-58022295D02*
X152554913Y-57927057D01*
X152554913Y-57927057D02*
X152507294Y-57831819D01*
X152507294Y-57831819D02*
X152459675Y-57784200D01*
X152459675Y-57784200D02*
X152364437Y-57736580D01*
X152364437Y-57736580D02*
X152126342Y-57736580D01*
X152126342Y-57736580D02*
X151983485Y-57784200D01*
X150983485Y-58641342D02*
X151031104Y-58688961D01*
X151031104Y-58688961D02*
X151173961Y-58736580D01*
X151173961Y-58736580D02*
X151269199Y-58736580D01*
X151269199Y-58736580D02*
X151412056Y-58688961D01*
X151412056Y-58688961D02*
X151507294Y-58593723D01*
X151507294Y-58593723D02*
X151554913Y-58498485D01*
X151554913Y-58498485D02*
X151602532Y-58308009D01*
X151602532Y-58308009D02*
X151602532Y-58165152D01*
X151602532Y-58165152D02*
X151554913Y-57974676D01*
X151554913Y-57974676D02*
X151507294Y-57879438D01*
X151507294Y-57879438D02*
X151412056Y-57784200D01*
X151412056Y-57784200D02*
X151269199Y-57736580D01*
X151269199Y-57736580D02*
X151173961Y-57736580D01*
X151173961Y-57736580D02*
X151031104Y-57784200D01*
X151031104Y-57784200D02*
X150983485Y-57831819D01*
X150554913Y-58736580D02*
X150554913Y-57736580D01*
X149983485Y-58736580D02*
X150412056Y-58165152D01*
X149983485Y-57736580D02*
X150554913Y-58308009D01*
X144602532Y-55236580D02*
X144269199Y-56236580D01*
X144269199Y-56236580D02*
X143935866Y-55236580D01*
X143031104Y-56141342D02*
X143078723Y-56188961D01*
X143078723Y-56188961D02*
X143221580Y-56236580D01*
X143221580Y-56236580D02*
X143316818Y-56236580D01*
X143316818Y-56236580D02*
X143459675Y-56188961D01*
X143459675Y-56188961D02*
X143554913Y-56093723D01*
X143554913Y-56093723D02*
X143602532Y-55998485D01*
X143602532Y-55998485D02*
X143650151Y-55808009D01*
X143650151Y-55808009D02*
X143650151Y-55665152D01*
X143650151Y-55665152D02*
X143602532Y-55474676D01*
X143602532Y-55474676D02*
X143554913Y-55379438D01*
X143554913Y-55379438D02*
X143459675Y-55284200D01*
X143459675Y-55284200D02*
X143316818Y-55236580D01*
X143316818Y-55236580D02*
X143221580Y-55236580D01*
X143221580Y-55236580D02*
X143078723Y-55284200D01*
X143078723Y-55284200D02*
X143031104Y-55331819D01*
X142031104Y-56141342D02*
X142078723Y-56188961D01*
X142078723Y-56188961D02*
X142221580Y-56236580D01*
X142221580Y-56236580D02*
X142316818Y-56236580D01*
X142316818Y-56236580D02*
X142459675Y-56188961D01*
X142459675Y-56188961D02*
X142554913Y-56093723D01*
X142554913Y-56093723D02*
X142602532Y-55998485D01*
X142602532Y-55998485D02*
X142650151Y-55808009D01*
X142650151Y-55808009D02*
X142650151Y-55665152D01*
X142650151Y-55665152D02*
X142602532Y-55474676D01*
X142602532Y-55474676D02*
X142554913Y-55379438D01*
X142554913Y-55379438D02*
X142459675Y-55284200D01*
X142459675Y-55284200D02*
X142316818Y-55236580D01*
X142316818Y-55236580D02*
X142221580Y-55236580D01*
X142221580Y-55236580D02*
X142078723Y-55284200D01*
X142078723Y-55284200D02*
X142031104Y-55331819D01*
X152066819Y-61236580D02*
X152400152Y-60760390D01*
X152638247Y-61236580D02*
X152638247Y-60236580D01*
X152638247Y-60236580D02*
X152257295Y-60236580D01*
X152257295Y-60236580D02*
X152162057Y-60284200D01*
X152162057Y-60284200D02*
X152114438Y-60331819D01*
X152114438Y-60331819D02*
X152066819Y-60427057D01*
X152066819Y-60427057D02*
X152066819Y-60569914D01*
X152066819Y-60569914D02*
X152114438Y-60665152D01*
X152114438Y-60665152D02*
X152162057Y-60712771D01*
X152162057Y-60712771D02*
X152257295Y-60760390D01*
X152257295Y-60760390D02*
X152638247Y-60760390D01*
X151685866Y-61188961D02*
X151543009Y-61236580D01*
X151543009Y-61236580D02*
X151304914Y-61236580D01*
X151304914Y-61236580D02*
X151209676Y-61188961D01*
X151209676Y-61188961D02*
X151162057Y-61141342D01*
X151162057Y-61141342D02*
X151114438Y-61046104D01*
X151114438Y-61046104D02*
X151114438Y-60950866D01*
X151114438Y-60950866D02*
X151162057Y-60855628D01*
X151162057Y-60855628D02*
X151209676Y-60808009D01*
X151209676Y-60808009D02*
X151304914Y-60760390D01*
X151304914Y-60760390D02*
X151495390Y-60712771D01*
X151495390Y-60712771D02*
X151590628Y-60665152D01*
X151590628Y-60665152D02*
X151638247Y-60617533D01*
X151638247Y-60617533D02*
X151685866Y-60522295D01*
X151685866Y-60522295D02*
X151685866Y-60427057D01*
X151685866Y-60427057D02*
X151638247Y-60331819D01*
X151638247Y-60331819D02*
X151590628Y-60284200D01*
X151590628Y-60284200D02*
X151495390Y-60236580D01*
X151495390Y-60236580D02*
X151257295Y-60236580D01*
X151257295Y-60236580D02*
X151114438Y-60284200D01*
X150828723Y-60236580D02*
X150257295Y-60236580D01*
X150543009Y-61236580D02*
X150543009Y-60236580D01*
X143781104Y-60284200D02*
X143876342Y-60236580D01*
X143876342Y-60236580D02*
X144019199Y-60236580D01*
X144019199Y-60236580D02*
X144162056Y-60284200D01*
X144162056Y-60284200D02*
X144257294Y-60379438D01*
X144257294Y-60379438D02*
X144304913Y-60474676D01*
X144304913Y-60474676D02*
X144352532Y-60665152D01*
X144352532Y-60665152D02*
X144352532Y-60808009D01*
X144352532Y-60808009D02*
X144304913Y-60998485D01*
X144304913Y-60998485D02*
X144257294Y-61093723D01*
X144257294Y-61093723D02*
X144162056Y-61188961D01*
X144162056Y-61188961D02*
X144019199Y-61236580D01*
X144019199Y-61236580D02*
X143923961Y-61236580D01*
X143923961Y-61236580D02*
X143781104Y-61188961D01*
X143781104Y-61188961D02*
X143733485Y-61141342D01*
X143733485Y-61141342D02*
X143733485Y-60808009D01*
X143733485Y-60808009D02*
X143923961Y-60808009D01*
X143304913Y-61236580D02*
X143304913Y-60236580D01*
X143304913Y-60236580D02*
X142733485Y-61236580D01*
X142733485Y-61236580D02*
X142733485Y-60236580D01*
X142257294Y-61236580D02*
X142257294Y-60236580D01*
X142257294Y-60236580D02*
X142019199Y-60236580D01*
X142019199Y-60236580D02*
X141876342Y-60284200D01*
X141876342Y-60284200D02*
X141781104Y-60379438D01*
X141781104Y-60379438D02*
X141733485Y-60474676D01*
X141733485Y-60474676D02*
X141685866Y-60665152D01*
X141685866Y-60665152D02*
X141685866Y-60808009D01*
X141685866Y-60808009D02*
X141733485Y-60998485D01*
X141733485Y-60998485D02*
X141781104Y-61093723D01*
X141781104Y-61093723D02*
X141876342Y-61188961D01*
X141876342Y-61188961D02*
X142019199Y-61236580D01*
X142019199Y-61236580D02*
X142257294Y-61236580D01*
X153090627Y-56236580D02*
X153090627Y-55236580D01*
X153090627Y-55236580D02*
X152757294Y-55950866D01*
X152757294Y-55950866D02*
X152423961Y-55236580D01*
X152423961Y-55236580D02*
X152423961Y-56236580D01*
X151947770Y-56236580D02*
X151947770Y-55236580D01*
X151519199Y-56188961D02*
X151376342Y-56236580D01*
X151376342Y-56236580D02*
X151138247Y-56236580D01*
X151138247Y-56236580D02*
X151043009Y-56188961D01*
X151043009Y-56188961D02*
X150995390Y-56141342D01*
X150995390Y-56141342D02*
X150947771Y-56046104D01*
X150947771Y-56046104D02*
X150947771Y-55950866D01*
X150947771Y-55950866D02*
X150995390Y-55855628D01*
X150995390Y-55855628D02*
X151043009Y-55808009D01*
X151043009Y-55808009D02*
X151138247Y-55760390D01*
X151138247Y-55760390D02*
X151328723Y-55712771D01*
X151328723Y-55712771D02*
X151423961Y-55665152D01*
X151423961Y-55665152D02*
X151471580Y-55617533D01*
X151471580Y-55617533D02*
X151519199Y-55522295D01*
X151519199Y-55522295D02*
X151519199Y-55427057D01*
X151519199Y-55427057D02*
X151471580Y-55331819D01*
X151471580Y-55331819D02*
X151423961Y-55284200D01*
X151423961Y-55284200D02*
X151328723Y-55236580D01*
X151328723Y-55236580D02*
X151090628Y-55236580D01*
X151090628Y-55236580D02*
X150947771Y-55284200D01*
X150328723Y-55236580D02*
X150138247Y-55236580D01*
X150138247Y-55236580D02*
X150043009Y-55284200D01*
X150043009Y-55284200D02*
X149947771Y-55379438D01*
X149947771Y-55379438D02*
X149900152Y-55569914D01*
X149900152Y-55569914D02*
X149900152Y-55903247D01*
X149900152Y-55903247D02*
X149947771Y-56093723D01*
X149947771Y-56093723D02*
X150043009Y-56188961D01*
X150043009Y-56188961D02*
X150138247Y-56236580D01*
X150138247Y-56236580D02*
X150328723Y-56236580D01*
X150328723Y-56236580D02*
X150423961Y-56188961D01*
X150423961Y-56188961D02*
X150519199Y-56093723D01*
X150519199Y-56093723D02*
X150566818Y-55903247D01*
X150566818Y-55903247D02*
X150566818Y-55569914D01*
X150566818Y-55569914D02*
X150519199Y-55379438D01*
X150519199Y-55379438D02*
X150423961Y-55284200D01*
X150423961Y-55284200D02*
X150328723Y-55236580D01*
X144590627Y-58736580D02*
X144590627Y-57736580D01*
X144590627Y-57736580D02*
X144257294Y-58450866D01*
X144257294Y-58450866D02*
X143923961Y-57736580D01*
X143923961Y-57736580D02*
X143923961Y-58736580D01*
X143257294Y-57736580D02*
X143066818Y-57736580D01*
X143066818Y-57736580D02*
X142971580Y-57784200D01*
X142971580Y-57784200D02*
X142876342Y-57879438D01*
X142876342Y-57879438D02*
X142828723Y-58069914D01*
X142828723Y-58069914D02*
X142828723Y-58403247D01*
X142828723Y-58403247D02*
X142876342Y-58593723D01*
X142876342Y-58593723D02*
X142971580Y-58688961D01*
X142971580Y-58688961D02*
X143066818Y-58736580D01*
X143066818Y-58736580D02*
X143257294Y-58736580D01*
X143257294Y-58736580D02*
X143352532Y-58688961D01*
X143352532Y-58688961D02*
X143447770Y-58593723D01*
X143447770Y-58593723D02*
X143495389Y-58403247D01*
X143495389Y-58403247D02*
X143495389Y-58069914D01*
X143495389Y-58069914D02*
X143447770Y-57879438D01*
X143447770Y-57879438D02*
X143352532Y-57784200D01*
X143352532Y-57784200D02*
X143257294Y-57736580D01*
X142447770Y-58688961D02*
X142304913Y-58736580D01*
X142304913Y-58736580D02*
X142066818Y-58736580D01*
X142066818Y-58736580D02*
X141971580Y-58688961D01*
X141971580Y-58688961D02*
X141923961Y-58641342D01*
X141923961Y-58641342D02*
X141876342Y-58546104D01*
X141876342Y-58546104D02*
X141876342Y-58450866D01*
X141876342Y-58450866D02*
X141923961Y-58355628D01*
X141923961Y-58355628D02*
X141971580Y-58308009D01*
X141971580Y-58308009D02*
X142066818Y-58260390D01*
X142066818Y-58260390D02*
X142257294Y-58212771D01*
X142257294Y-58212771D02*
X142352532Y-58165152D01*
X142352532Y-58165152D02*
X142400151Y-58117533D01*
X142400151Y-58117533D02*
X142447770Y-58022295D01*
X142447770Y-58022295D02*
X142447770Y-57927057D01*
X142447770Y-57927057D02*
X142400151Y-57831819D01*
X142400151Y-57831819D02*
X142352532Y-57784200D01*
X142352532Y-57784200D02*
X142257294Y-57736580D01*
X142257294Y-57736580D02*
X142019199Y-57736580D01*
X142019199Y-57736580D02*
X141876342Y-57784200D01*
X141447770Y-58736580D02*
X141447770Y-57736580D01*
X148907332Y-46547761D02*
X148764475Y-46595380D01*
X148764475Y-46595380D02*
X148526380Y-46595380D01*
X148526380Y-46595380D02*
X148431142Y-46547761D01*
X148431142Y-46547761D02*
X148383523Y-46500142D01*
X148383523Y-46500142D02*
X148335904Y-46404904D01*
X148335904Y-46404904D02*
X148335904Y-46309666D01*
X148335904Y-46309666D02*
X148383523Y-46214428D01*
X148383523Y-46214428D02*
X148431142Y-46166809D01*
X148431142Y-46166809D02*
X148526380Y-46119190D01*
X148526380Y-46119190D02*
X148716856Y-46071571D01*
X148716856Y-46071571D02*
X148812094Y-46023952D01*
X148812094Y-46023952D02*
X148859713Y-45976333D01*
X148859713Y-45976333D02*
X148907332Y-45881095D01*
X148907332Y-45881095D02*
X148907332Y-45785857D01*
X148907332Y-45785857D02*
X148859713Y-45690619D01*
X148859713Y-45690619D02*
X148812094Y-45643000D01*
X148812094Y-45643000D02*
X148716856Y-45595380D01*
X148716856Y-45595380D02*
X148478761Y-45595380D01*
X148478761Y-45595380D02*
X148335904Y-45643000D01*
X148002570Y-45595380D02*
X147764475Y-46595380D01*
X147764475Y-46595380D02*
X147573999Y-45881095D01*
X147573999Y-45881095D02*
X147383523Y-46595380D01*
X147383523Y-46595380D02*
X147145428Y-45595380D01*
X146240666Y-46595380D02*
X146812094Y-46595380D01*
X146526380Y-46595380D02*
X146526380Y-45595380D01*
X146526380Y-45595380D02*
X146621618Y-45738238D01*
X146621618Y-45738238D02*
X146716856Y-45833476D01*
X146716856Y-45833476D02*
X146812094Y-45881095D01*
X173331094Y-129145380D02*
X173331094Y-128145380D01*
X173331094Y-128145380D02*
X173092999Y-128145380D01*
X173092999Y-128145380D02*
X172950142Y-128193000D01*
X172950142Y-128193000D02*
X172854904Y-128288238D01*
X172854904Y-128288238D02*
X172807285Y-128383476D01*
X172807285Y-128383476D02*
X172759666Y-128573952D01*
X172759666Y-128573952D02*
X172759666Y-128716809D01*
X172759666Y-128716809D02*
X172807285Y-128907285D01*
X172807285Y-128907285D02*
X172854904Y-129002523D01*
X172854904Y-129002523D02*
X172950142Y-129097761D01*
X172950142Y-129097761D02*
X173092999Y-129145380D01*
X173092999Y-129145380D02*
X173331094Y-129145380D01*
X172188237Y-128573952D02*
X172283475Y-128526333D01*
X172283475Y-128526333D02*
X172331094Y-128478714D01*
X172331094Y-128478714D02*
X172378713Y-128383476D01*
X172378713Y-128383476D02*
X172378713Y-128335857D01*
X172378713Y-128335857D02*
X172331094Y-128240619D01*
X172331094Y-128240619D02*
X172283475Y-128193000D01*
X172283475Y-128193000D02*
X172188237Y-128145380D01*
X172188237Y-128145380D02*
X171997761Y-128145380D01*
X171997761Y-128145380D02*
X171902523Y-128193000D01*
X171902523Y-128193000D02*
X171854904Y-128240619D01*
X171854904Y-128240619D02*
X171807285Y-128335857D01*
X171807285Y-128335857D02*
X171807285Y-128383476D01*
X171807285Y-128383476D02*
X171854904Y-128478714D01*
X171854904Y-128478714D02*
X171902523Y-128526333D01*
X171902523Y-128526333D02*
X171997761Y-128573952D01*
X171997761Y-128573952D02*
X172188237Y-128573952D01*
X172188237Y-128573952D02*
X172283475Y-128621571D01*
X172283475Y-128621571D02*
X172331094Y-128669190D01*
X172331094Y-128669190D02*
X172378713Y-128764428D01*
X172378713Y-128764428D02*
X172378713Y-128954904D01*
X172378713Y-128954904D02*
X172331094Y-129050142D01*
X172331094Y-129050142D02*
X172283475Y-129097761D01*
X172283475Y-129097761D02*
X172188237Y-129145380D01*
X172188237Y-129145380D02*
X171997761Y-129145380D01*
X171997761Y-129145380D02*
X171902523Y-129097761D01*
X171902523Y-129097761D02*
X171854904Y-129050142D01*
X171854904Y-129050142D02*
X171807285Y-128954904D01*
X171807285Y-128954904D02*
X171807285Y-128764428D01*
X171807285Y-128764428D02*
X171854904Y-128669190D01*
X171854904Y-128669190D02*
X171902523Y-128621571D01*
X171902523Y-128621571D02*
X171997761Y-128573952D01*
X157773666Y-49262380D02*
X158106999Y-48786190D01*
X158345094Y-49262380D02*
X158345094Y-48262380D01*
X158345094Y-48262380D02*
X157964142Y-48262380D01*
X157964142Y-48262380D02*
X157868904Y-48310000D01*
X157868904Y-48310000D02*
X157821285Y-48357619D01*
X157821285Y-48357619D02*
X157773666Y-48452857D01*
X157773666Y-48452857D02*
X157773666Y-48595714D01*
X157773666Y-48595714D02*
X157821285Y-48690952D01*
X157821285Y-48690952D02*
X157868904Y-48738571D01*
X157868904Y-48738571D02*
X157964142Y-48786190D01*
X157964142Y-48786190D02*
X158345094Y-48786190D01*
X156916523Y-48262380D02*
X157106999Y-48262380D01*
X157106999Y-48262380D02*
X157202237Y-48310000D01*
X157202237Y-48310000D02*
X157249856Y-48357619D01*
X157249856Y-48357619D02*
X157345094Y-48500476D01*
X157345094Y-48500476D02*
X157392713Y-48690952D01*
X157392713Y-48690952D02*
X157392713Y-49071904D01*
X157392713Y-49071904D02*
X157345094Y-49167142D01*
X157345094Y-49167142D02*
X157297475Y-49214761D01*
X157297475Y-49214761D02*
X157202237Y-49262380D01*
X157202237Y-49262380D02*
X157011761Y-49262380D01*
X157011761Y-49262380D02*
X156916523Y-49214761D01*
X156916523Y-49214761D02*
X156868904Y-49167142D01*
X156868904Y-49167142D02*
X156821285Y-49071904D01*
X156821285Y-49071904D02*
X156821285Y-48833809D01*
X156821285Y-48833809D02*
X156868904Y-48738571D01*
X156868904Y-48738571D02*
X156916523Y-48690952D01*
X156916523Y-48690952D02*
X157011761Y-48643333D01*
X157011761Y-48643333D02*
X157202237Y-48643333D01*
X157202237Y-48643333D02*
X157297475Y-48690952D01*
X157297475Y-48690952D02*
X157345094Y-48738571D01*
X157345094Y-48738571D02*
X157392713Y-48833809D01*
X189142666Y-62883142D02*
X189190285Y-62930761D01*
X189190285Y-62930761D02*
X189333142Y-62978380D01*
X189333142Y-62978380D02*
X189428380Y-62978380D01*
X189428380Y-62978380D02*
X189571237Y-62930761D01*
X189571237Y-62930761D02*
X189666475Y-62835523D01*
X189666475Y-62835523D02*
X189714094Y-62740285D01*
X189714094Y-62740285D02*
X189761713Y-62549809D01*
X189761713Y-62549809D02*
X189761713Y-62406952D01*
X189761713Y-62406952D02*
X189714094Y-62216476D01*
X189714094Y-62216476D02*
X189666475Y-62121238D01*
X189666475Y-62121238D02*
X189571237Y-62026000D01*
X189571237Y-62026000D02*
X189428380Y-61978380D01*
X189428380Y-61978380D02*
X189333142Y-61978380D01*
X189333142Y-61978380D02*
X189190285Y-62026000D01*
X189190285Y-62026000D02*
X189142666Y-62073619D01*
X188809332Y-61978380D02*
X188142666Y-61978380D01*
X188142666Y-61978380D02*
X188571237Y-62978380D01*
X172378666Y-50535142D02*
X172426285Y-50582761D01*
X172426285Y-50582761D02*
X172569142Y-50630380D01*
X172569142Y-50630380D02*
X172664380Y-50630380D01*
X172664380Y-50630380D02*
X172807237Y-50582761D01*
X172807237Y-50582761D02*
X172902475Y-50487523D01*
X172902475Y-50487523D02*
X172950094Y-50392285D01*
X172950094Y-50392285D02*
X172997713Y-50201809D01*
X172997713Y-50201809D02*
X172997713Y-50058952D01*
X172997713Y-50058952D02*
X172950094Y-49868476D01*
X172950094Y-49868476D02*
X172902475Y-49773238D01*
X172902475Y-49773238D02*
X172807237Y-49678000D01*
X172807237Y-49678000D02*
X172664380Y-49630380D01*
X172664380Y-49630380D02*
X172569142Y-49630380D01*
X172569142Y-49630380D02*
X172426285Y-49678000D01*
X172426285Y-49678000D02*
X172378666Y-49725619D01*
X172045332Y-49630380D02*
X171426285Y-49630380D01*
X171426285Y-49630380D02*
X171759618Y-50011333D01*
X171759618Y-50011333D02*
X171616761Y-50011333D01*
X171616761Y-50011333D02*
X171521523Y-50058952D01*
X171521523Y-50058952D02*
X171473904Y-50106571D01*
X171473904Y-50106571D02*
X171426285Y-50201809D01*
X171426285Y-50201809D02*
X171426285Y-50439904D01*
X171426285Y-50439904D02*
X171473904Y-50535142D01*
X171473904Y-50535142D02*
X171521523Y-50582761D01*
X171521523Y-50582761D02*
X171616761Y-50630380D01*
X171616761Y-50630380D02*
X171902475Y-50630380D01*
X171902475Y-50630380D02*
X171997713Y-50582761D01*
X171997713Y-50582761D02*
X172045332Y-50535142D01*
X179998666Y-40531142D02*
X180046285Y-40578761D01*
X180046285Y-40578761D02*
X180189142Y-40626380D01*
X180189142Y-40626380D02*
X180284380Y-40626380D01*
X180284380Y-40626380D02*
X180427237Y-40578761D01*
X180427237Y-40578761D02*
X180522475Y-40483523D01*
X180522475Y-40483523D02*
X180570094Y-40388285D01*
X180570094Y-40388285D02*
X180617713Y-40197809D01*
X180617713Y-40197809D02*
X180617713Y-40054952D01*
X180617713Y-40054952D02*
X180570094Y-39864476D01*
X180570094Y-39864476D02*
X180522475Y-39769238D01*
X180522475Y-39769238D02*
X180427237Y-39674000D01*
X180427237Y-39674000D02*
X180284380Y-39626380D01*
X180284380Y-39626380D02*
X180189142Y-39626380D01*
X180189142Y-39626380D02*
X180046285Y-39674000D01*
X180046285Y-39674000D02*
X179998666Y-39721619D01*
X179617713Y-39721619D02*
X179570094Y-39674000D01*
X179570094Y-39674000D02*
X179474856Y-39626380D01*
X179474856Y-39626380D02*
X179236761Y-39626380D01*
X179236761Y-39626380D02*
X179141523Y-39674000D01*
X179141523Y-39674000D02*
X179093904Y-39721619D01*
X179093904Y-39721619D02*
X179046285Y-39816857D01*
X179046285Y-39816857D02*
X179046285Y-39912095D01*
X179046285Y-39912095D02*
X179093904Y-40054952D01*
X179093904Y-40054952D02*
X179665332Y-40626380D01*
X179665332Y-40626380D02*
X179046285Y-40626380D01*
X173013666Y-61232142D02*
X173061285Y-61279761D01*
X173061285Y-61279761D02*
X173204142Y-61327380D01*
X173204142Y-61327380D02*
X173299380Y-61327380D01*
X173299380Y-61327380D02*
X173442237Y-61279761D01*
X173442237Y-61279761D02*
X173537475Y-61184523D01*
X173537475Y-61184523D02*
X173585094Y-61089285D01*
X173585094Y-61089285D02*
X173632713Y-60898809D01*
X173632713Y-60898809D02*
X173632713Y-60755952D01*
X173632713Y-60755952D02*
X173585094Y-60565476D01*
X173585094Y-60565476D02*
X173537475Y-60470238D01*
X173537475Y-60470238D02*
X173442237Y-60375000D01*
X173442237Y-60375000D02*
X173299380Y-60327380D01*
X173299380Y-60327380D02*
X173204142Y-60327380D01*
X173204142Y-60327380D02*
X173061285Y-60375000D01*
X173061285Y-60375000D02*
X173013666Y-60422619D01*
X172156523Y-60327380D02*
X172346999Y-60327380D01*
X172346999Y-60327380D02*
X172442237Y-60375000D01*
X172442237Y-60375000D02*
X172489856Y-60422619D01*
X172489856Y-60422619D02*
X172585094Y-60565476D01*
X172585094Y-60565476D02*
X172632713Y-60755952D01*
X172632713Y-60755952D02*
X172632713Y-61136904D01*
X172632713Y-61136904D02*
X172585094Y-61232142D01*
X172585094Y-61232142D02*
X172537475Y-61279761D01*
X172537475Y-61279761D02*
X172442237Y-61327380D01*
X172442237Y-61327380D02*
X172251761Y-61327380D01*
X172251761Y-61327380D02*
X172156523Y-61279761D01*
X172156523Y-61279761D02*
X172108904Y-61232142D01*
X172108904Y-61232142D02*
X172061285Y-61136904D01*
X172061285Y-61136904D02*
X172061285Y-60898809D01*
X172061285Y-60898809D02*
X172108904Y-60803571D01*
X172108904Y-60803571D02*
X172156523Y-60755952D01*
X172156523Y-60755952D02*
X172251761Y-60708333D01*
X172251761Y-60708333D02*
X172442237Y-60708333D01*
X172442237Y-60708333D02*
X172537475Y-60755952D01*
X172537475Y-60755952D02*
X172585094Y-60803571D01*
X172585094Y-60803571D02*
X172632713Y-60898809D01*
X177839666Y-40658142D02*
X177887285Y-40705761D01*
X177887285Y-40705761D02*
X178030142Y-40753380D01*
X178030142Y-40753380D02*
X178125380Y-40753380D01*
X178125380Y-40753380D02*
X178268237Y-40705761D01*
X178268237Y-40705761D02*
X178363475Y-40610523D01*
X178363475Y-40610523D02*
X178411094Y-40515285D01*
X178411094Y-40515285D02*
X178458713Y-40324809D01*
X178458713Y-40324809D02*
X178458713Y-40181952D01*
X178458713Y-40181952D02*
X178411094Y-39991476D01*
X178411094Y-39991476D02*
X178363475Y-39896238D01*
X178363475Y-39896238D02*
X178268237Y-39801000D01*
X178268237Y-39801000D02*
X178125380Y-39753380D01*
X178125380Y-39753380D02*
X178030142Y-39753380D01*
X178030142Y-39753380D02*
X177887285Y-39801000D01*
X177887285Y-39801000D02*
X177839666Y-39848619D01*
X176982523Y-40086714D02*
X176982523Y-40753380D01*
X177220618Y-39705761D02*
X177458713Y-40420047D01*
X177458713Y-40420047D02*
X176839666Y-40420047D01*
X192603285Y-129272380D02*
X192603285Y-128272380D01*
X192603285Y-128272380D02*
X192365190Y-128272380D01*
X192365190Y-128272380D02*
X192222333Y-128320000D01*
X192222333Y-128320000D02*
X192127095Y-128415238D01*
X192127095Y-128415238D02*
X192079476Y-128510476D01*
X192079476Y-128510476D02*
X192031857Y-128700952D01*
X192031857Y-128700952D02*
X192031857Y-128843809D01*
X192031857Y-128843809D02*
X192079476Y-129034285D01*
X192079476Y-129034285D02*
X192127095Y-129129523D01*
X192127095Y-129129523D02*
X192222333Y-129224761D01*
X192222333Y-129224761D02*
X192365190Y-129272380D01*
X192365190Y-129272380D02*
X192603285Y-129272380D01*
X191079476Y-129272380D02*
X191650904Y-129272380D01*
X191365190Y-129272380D02*
X191365190Y-128272380D01*
X191365190Y-128272380D02*
X191460428Y-128415238D01*
X191460428Y-128415238D02*
X191555666Y-128510476D01*
X191555666Y-128510476D02*
X191650904Y-128558095D01*
X190698523Y-128367619D02*
X190650904Y-128320000D01*
X190650904Y-128320000D02*
X190555666Y-128272380D01*
X190555666Y-128272380D02*
X190317571Y-128272380D01*
X190317571Y-128272380D02*
X190222333Y-128320000D01*
X190222333Y-128320000D02*
X190174714Y-128367619D01*
X190174714Y-128367619D02*
X190127095Y-128462857D01*
X190127095Y-128462857D02*
X190127095Y-128558095D01*
X190127095Y-128558095D02*
X190174714Y-128700952D01*
X190174714Y-128700952D02*
X190746142Y-129272380D01*
X190746142Y-129272380D02*
X190127095Y-129272380D01*
X173331094Y-71868380D02*
X173331094Y-70868380D01*
X173331094Y-70868380D02*
X173092999Y-70868380D01*
X173092999Y-70868380D02*
X172950142Y-70916000D01*
X172950142Y-70916000D02*
X172854904Y-71011238D01*
X172854904Y-71011238D02*
X172807285Y-71106476D01*
X172807285Y-71106476D02*
X172759666Y-71296952D01*
X172759666Y-71296952D02*
X172759666Y-71439809D01*
X172759666Y-71439809D02*
X172807285Y-71630285D01*
X172807285Y-71630285D02*
X172854904Y-71725523D01*
X172854904Y-71725523D02*
X172950142Y-71820761D01*
X172950142Y-71820761D02*
X173092999Y-71868380D01*
X173092999Y-71868380D02*
X173331094Y-71868380D01*
X171854904Y-70868380D02*
X172331094Y-70868380D01*
X172331094Y-70868380D02*
X172378713Y-71344571D01*
X172378713Y-71344571D02*
X172331094Y-71296952D01*
X172331094Y-71296952D02*
X172235856Y-71249333D01*
X172235856Y-71249333D02*
X171997761Y-71249333D01*
X171997761Y-71249333D02*
X171902523Y-71296952D01*
X171902523Y-71296952D02*
X171854904Y-71344571D01*
X171854904Y-71344571D02*
X171807285Y-71439809D01*
X171807285Y-71439809D02*
X171807285Y-71677904D01*
X171807285Y-71677904D02*
X171854904Y-71773142D01*
X171854904Y-71773142D02*
X171902523Y-71820761D01*
X171902523Y-71820761D02*
X171997761Y-71868380D01*
X171997761Y-71868380D02*
X172235856Y-71868380D01*
X172235856Y-71868380D02*
X172331094Y-71820761D01*
X172331094Y-71820761D02*
X172378713Y-71773142D01*
X169203666Y-52692380D02*
X169536999Y-52216190D01*
X169775094Y-52692380D02*
X169775094Y-51692380D01*
X169775094Y-51692380D02*
X169394142Y-51692380D01*
X169394142Y-51692380D02*
X169298904Y-51740000D01*
X169298904Y-51740000D02*
X169251285Y-51787619D01*
X169251285Y-51787619D02*
X169203666Y-51882857D01*
X169203666Y-51882857D02*
X169203666Y-52025714D01*
X169203666Y-52025714D02*
X169251285Y-52120952D01*
X169251285Y-52120952D02*
X169298904Y-52168571D01*
X169298904Y-52168571D02*
X169394142Y-52216190D01*
X169394142Y-52216190D02*
X169775094Y-52216190D01*
X168870332Y-51692380D02*
X168251285Y-51692380D01*
X168251285Y-51692380D02*
X168584618Y-52073333D01*
X168584618Y-52073333D02*
X168441761Y-52073333D01*
X168441761Y-52073333D02*
X168346523Y-52120952D01*
X168346523Y-52120952D02*
X168298904Y-52168571D01*
X168298904Y-52168571D02*
X168251285Y-52263809D01*
X168251285Y-52263809D02*
X168251285Y-52501904D01*
X168251285Y-52501904D02*
X168298904Y-52597142D01*
X168298904Y-52597142D02*
X168346523Y-52644761D01*
X168346523Y-52644761D02*
X168441761Y-52692380D01*
X168441761Y-52692380D02*
X168727475Y-52692380D01*
X168727475Y-52692380D02*
X168822713Y-52644761D01*
X168822713Y-52644761D02*
X168870332Y-52597142D01*
X192254094Y-71868380D02*
X192254094Y-70868380D01*
X192254094Y-70868380D02*
X192015999Y-70868380D01*
X192015999Y-70868380D02*
X191873142Y-70916000D01*
X191873142Y-70916000D02*
X191777904Y-71011238D01*
X191777904Y-71011238D02*
X191730285Y-71106476D01*
X191730285Y-71106476D02*
X191682666Y-71296952D01*
X191682666Y-71296952D02*
X191682666Y-71439809D01*
X191682666Y-71439809D02*
X191730285Y-71630285D01*
X191730285Y-71630285D02*
X191777904Y-71725523D01*
X191777904Y-71725523D02*
X191873142Y-71820761D01*
X191873142Y-71820761D02*
X192015999Y-71868380D01*
X192015999Y-71868380D02*
X192254094Y-71868380D01*
X191206475Y-71868380D02*
X191015999Y-71868380D01*
X191015999Y-71868380D02*
X190920761Y-71820761D01*
X190920761Y-71820761D02*
X190873142Y-71773142D01*
X190873142Y-71773142D02*
X190777904Y-71630285D01*
X190777904Y-71630285D02*
X190730285Y-71439809D01*
X190730285Y-71439809D02*
X190730285Y-71058857D01*
X190730285Y-71058857D02*
X190777904Y-70963619D01*
X190777904Y-70963619D02*
X190825523Y-70916000D01*
X190825523Y-70916000D02*
X190920761Y-70868380D01*
X190920761Y-70868380D02*
X191111237Y-70868380D01*
X191111237Y-70868380D02*
X191206475Y-70916000D01*
X191206475Y-70916000D02*
X191254094Y-70963619D01*
X191254094Y-70963619D02*
X191301713Y-71058857D01*
X191301713Y-71058857D02*
X191301713Y-71296952D01*
X191301713Y-71296952D02*
X191254094Y-71392190D01*
X191254094Y-71392190D02*
X191206475Y-71439809D01*
X191206475Y-71439809D02*
X191111237Y-71487428D01*
X191111237Y-71487428D02*
X190920761Y-71487428D01*
X190920761Y-71487428D02*
X190825523Y-71439809D01*
X190825523Y-71439809D02*
X190777904Y-71392190D01*
X190777904Y-71392190D02*
X190730285Y-71296952D01*
X190793666Y-57644380D02*
X191126999Y-57168190D01*
X191365094Y-57644380D02*
X191365094Y-56644380D01*
X191365094Y-56644380D02*
X190984142Y-56644380D01*
X190984142Y-56644380D02*
X190888904Y-56692000D01*
X190888904Y-56692000D02*
X190841285Y-56739619D01*
X190841285Y-56739619D02*
X190793666Y-56834857D01*
X190793666Y-56834857D02*
X190793666Y-56977714D01*
X190793666Y-56977714D02*
X190841285Y-57072952D01*
X190841285Y-57072952D02*
X190888904Y-57120571D01*
X190888904Y-57120571D02*
X190984142Y-57168190D01*
X190984142Y-57168190D02*
X191365094Y-57168190D01*
X189888904Y-56644380D02*
X190365094Y-56644380D01*
X190365094Y-56644380D02*
X190412713Y-57120571D01*
X190412713Y-57120571D02*
X190365094Y-57072952D01*
X190365094Y-57072952D02*
X190269856Y-57025333D01*
X190269856Y-57025333D02*
X190031761Y-57025333D01*
X190031761Y-57025333D02*
X189936523Y-57072952D01*
X189936523Y-57072952D02*
X189888904Y-57120571D01*
X189888904Y-57120571D02*
X189841285Y-57215809D01*
X189841285Y-57215809D02*
X189841285Y-57453904D01*
X189841285Y-57453904D02*
X189888904Y-57549142D01*
X189888904Y-57549142D02*
X189936523Y-57596761D01*
X189936523Y-57596761D02*
X190031761Y-57644380D01*
X190031761Y-57644380D02*
X190269856Y-57644380D01*
X190269856Y-57644380D02*
X190365094Y-57596761D01*
X190365094Y-57596761D02*
X190412713Y-57549142D01*
X192349285Y-110095380D02*
X192349285Y-109095380D01*
X192349285Y-109095380D02*
X192111190Y-109095380D01*
X192111190Y-109095380D02*
X191968333Y-109143000D01*
X191968333Y-109143000D02*
X191873095Y-109238238D01*
X191873095Y-109238238D02*
X191825476Y-109333476D01*
X191825476Y-109333476D02*
X191777857Y-109523952D01*
X191777857Y-109523952D02*
X191777857Y-109666809D01*
X191777857Y-109666809D02*
X191825476Y-109857285D01*
X191825476Y-109857285D02*
X191873095Y-109952523D01*
X191873095Y-109952523D02*
X191968333Y-110047761D01*
X191968333Y-110047761D02*
X192111190Y-110095380D01*
X192111190Y-110095380D02*
X192349285Y-110095380D01*
X190825476Y-110095380D02*
X191396904Y-110095380D01*
X191111190Y-110095380D02*
X191111190Y-109095380D01*
X191111190Y-109095380D02*
X191206428Y-109238238D01*
X191206428Y-109238238D02*
X191301666Y-109333476D01*
X191301666Y-109333476D02*
X191396904Y-109381095D01*
X189873095Y-110095380D02*
X190444523Y-110095380D01*
X190158809Y-110095380D02*
X190158809Y-109095380D01*
X190158809Y-109095380D02*
X190254047Y-109238238D01*
X190254047Y-109238238D02*
X190349285Y-109333476D01*
X190349285Y-109333476D02*
X190444523Y-109381095D01*
X184297370Y-39488069D02*
X184297370Y-39964259D01*
X184630703Y-38964259D02*
X184297370Y-39488069D01*
X184297370Y-39488069D02*
X183964037Y-38964259D01*
X183106894Y-39964259D02*
X183678322Y-39964259D01*
X183392608Y-39964259D02*
X183392608Y-38964259D01*
X183392608Y-38964259D02*
X183487846Y-39107117D01*
X183487846Y-39107117D02*
X183583084Y-39202355D01*
X183583084Y-39202355D02*
X183678322Y-39249974D01*
X183324404Y-59998630D02*
X183324404Y-60808154D01*
X183324404Y-60808154D02*
X183276785Y-60903392D01*
X183276785Y-60903392D02*
X183229166Y-60951011D01*
X183229166Y-60951011D02*
X183133928Y-60998630D01*
X183133928Y-60998630D02*
X182943452Y-60998630D01*
X182943452Y-60998630D02*
X182848214Y-60951011D01*
X182848214Y-60951011D02*
X182800595Y-60903392D01*
X182800595Y-60903392D02*
X182752976Y-60808154D01*
X182752976Y-60808154D02*
X182752976Y-59998630D01*
X181752976Y-60998630D02*
X182324404Y-60998630D01*
X182038690Y-60998630D02*
X182038690Y-59998630D01*
X182038690Y-59998630D02*
X182133928Y-60141488D01*
X182133928Y-60141488D02*
X182229166Y-60236726D01*
X182229166Y-60236726D02*
X182324404Y-60284345D01*
X154027094Y-71741380D02*
X154027094Y-70741380D01*
X154027094Y-70741380D02*
X153788999Y-70741380D01*
X153788999Y-70741380D02*
X153646142Y-70789000D01*
X153646142Y-70789000D02*
X153550904Y-70884238D01*
X153550904Y-70884238D02*
X153503285Y-70979476D01*
X153503285Y-70979476D02*
X153455666Y-71169952D01*
X153455666Y-71169952D02*
X153455666Y-71312809D01*
X153455666Y-71312809D02*
X153503285Y-71503285D01*
X153503285Y-71503285D02*
X153550904Y-71598523D01*
X153550904Y-71598523D02*
X153646142Y-71693761D01*
X153646142Y-71693761D02*
X153788999Y-71741380D01*
X153788999Y-71741380D02*
X154027094Y-71741380D01*
X152503285Y-71741380D02*
X153074713Y-71741380D01*
X152788999Y-71741380D02*
X152788999Y-70741380D01*
X152788999Y-70741380D02*
X152884237Y-70884238D01*
X152884237Y-70884238D02*
X152979475Y-70979476D01*
X152979475Y-70979476D02*
X153074713Y-71027095D01*
X169076666Y-58533380D02*
X169409999Y-58057190D01*
X169648094Y-58533380D02*
X169648094Y-57533380D01*
X169648094Y-57533380D02*
X169267142Y-57533380D01*
X169267142Y-57533380D02*
X169171904Y-57581000D01*
X169171904Y-57581000D02*
X169124285Y-57628619D01*
X169124285Y-57628619D02*
X169076666Y-57723857D01*
X169076666Y-57723857D02*
X169076666Y-57866714D01*
X169076666Y-57866714D02*
X169124285Y-57961952D01*
X169124285Y-57961952D02*
X169171904Y-58009571D01*
X169171904Y-58009571D02*
X169267142Y-58057190D01*
X169267142Y-58057190D02*
X169648094Y-58057190D01*
X168219523Y-57866714D02*
X168219523Y-58533380D01*
X168457618Y-57485761D02*
X168695713Y-58200047D01*
X168695713Y-58200047D02*
X168076666Y-58200047D01*
X176696666Y-62756142D02*
X176744285Y-62803761D01*
X176744285Y-62803761D02*
X176887142Y-62851380D01*
X176887142Y-62851380D02*
X176982380Y-62851380D01*
X176982380Y-62851380D02*
X177125237Y-62803761D01*
X177125237Y-62803761D02*
X177220475Y-62708523D01*
X177220475Y-62708523D02*
X177268094Y-62613285D01*
X177268094Y-62613285D02*
X177315713Y-62422809D01*
X177315713Y-62422809D02*
X177315713Y-62279952D01*
X177315713Y-62279952D02*
X177268094Y-62089476D01*
X177268094Y-62089476D02*
X177220475Y-61994238D01*
X177220475Y-61994238D02*
X177125237Y-61899000D01*
X177125237Y-61899000D02*
X176982380Y-61851380D01*
X176982380Y-61851380D02*
X176887142Y-61851380D01*
X176887142Y-61851380D02*
X176744285Y-61899000D01*
X176744285Y-61899000D02*
X176696666Y-61946619D01*
X176125237Y-62279952D02*
X176220475Y-62232333D01*
X176220475Y-62232333D02*
X176268094Y-62184714D01*
X176268094Y-62184714D02*
X176315713Y-62089476D01*
X176315713Y-62089476D02*
X176315713Y-62041857D01*
X176315713Y-62041857D02*
X176268094Y-61946619D01*
X176268094Y-61946619D02*
X176220475Y-61899000D01*
X176220475Y-61899000D02*
X176125237Y-61851380D01*
X176125237Y-61851380D02*
X175934761Y-61851380D01*
X175934761Y-61851380D02*
X175839523Y-61899000D01*
X175839523Y-61899000D02*
X175791904Y-61946619D01*
X175791904Y-61946619D02*
X175744285Y-62041857D01*
X175744285Y-62041857D02*
X175744285Y-62089476D01*
X175744285Y-62089476D02*
X175791904Y-62184714D01*
X175791904Y-62184714D02*
X175839523Y-62232333D01*
X175839523Y-62232333D02*
X175934761Y-62279952D01*
X175934761Y-62279952D02*
X176125237Y-62279952D01*
X176125237Y-62279952D02*
X176220475Y-62327571D01*
X176220475Y-62327571D02*
X176268094Y-62375190D01*
X176268094Y-62375190D02*
X176315713Y-62470428D01*
X176315713Y-62470428D02*
X176315713Y-62660904D01*
X176315713Y-62660904D02*
X176268094Y-62756142D01*
X176268094Y-62756142D02*
X176220475Y-62803761D01*
X176220475Y-62803761D02*
X176125237Y-62851380D01*
X176125237Y-62851380D02*
X175934761Y-62851380D01*
X175934761Y-62851380D02*
X175839523Y-62803761D01*
X175839523Y-62803761D02*
X175791904Y-62756142D01*
X175791904Y-62756142D02*
X175744285Y-62660904D01*
X175744285Y-62660904D02*
X175744285Y-62470428D01*
X175744285Y-62470428D02*
X175791904Y-62375190D01*
X175791904Y-62375190D02*
X175839523Y-62327571D01*
X175839523Y-62327571D02*
X175934761Y-62279952D01*
X159218094Y-40769380D02*
X159218094Y-41578904D01*
X159218094Y-41578904D02*
X159170475Y-41674142D01*
X159170475Y-41674142D02*
X159122856Y-41721761D01*
X159122856Y-41721761D02*
X159027618Y-41769380D01*
X159027618Y-41769380D02*
X158837142Y-41769380D01*
X158837142Y-41769380D02*
X158741904Y-41721761D01*
X158741904Y-41721761D02*
X158694285Y-41674142D01*
X158694285Y-41674142D02*
X158646666Y-41578904D01*
X158646666Y-41578904D02*
X158646666Y-40769380D01*
X158218094Y-41721761D02*
X158075237Y-41769380D01*
X158075237Y-41769380D02*
X157837142Y-41769380D01*
X157837142Y-41769380D02*
X157741904Y-41721761D01*
X157741904Y-41721761D02*
X157694285Y-41674142D01*
X157694285Y-41674142D02*
X157646666Y-41578904D01*
X157646666Y-41578904D02*
X157646666Y-41483666D01*
X157646666Y-41483666D02*
X157694285Y-41388428D01*
X157694285Y-41388428D02*
X157741904Y-41340809D01*
X157741904Y-41340809D02*
X157837142Y-41293190D01*
X157837142Y-41293190D02*
X158027618Y-41245571D01*
X158027618Y-41245571D02*
X158122856Y-41197952D01*
X158122856Y-41197952D02*
X158170475Y-41150333D01*
X158170475Y-41150333D02*
X158218094Y-41055095D01*
X158218094Y-41055095D02*
X158218094Y-40959857D01*
X158218094Y-40959857D02*
X158170475Y-40864619D01*
X158170475Y-40864619D02*
X158122856Y-40817000D01*
X158122856Y-40817000D02*
X158027618Y-40769380D01*
X158027618Y-40769380D02*
X157789523Y-40769380D01*
X157789523Y-40769380D02*
X157646666Y-40817000D01*
X156884761Y-41245571D02*
X156741904Y-41293190D01*
X156741904Y-41293190D02*
X156694285Y-41340809D01*
X156694285Y-41340809D02*
X156646666Y-41436047D01*
X156646666Y-41436047D02*
X156646666Y-41578904D01*
X156646666Y-41578904D02*
X156694285Y-41674142D01*
X156694285Y-41674142D02*
X156741904Y-41721761D01*
X156741904Y-41721761D02*
X156837142Y-41769380D01*
X156837142Y-41769380D02*
X157218094Y-41769380D01*
X157218094Y-41769380D02*
X157218094Y-40769380D01*
X157218094Y-40769380D02*
X156884761Y-40769380D01*
X156884761Y-40769380D02*
X156789523Y-40817000D01*
X156789523Y-40817000D02*
X156741904Y-40864619D01*
X156741904Y-40864619D02*
X156694285Y-40959857D01*
X156694285Y-40959857D02*
X156694285Y-41055095D01*
X156694285Y-41055095D02*
X156741904Y-41150333D01*
X156741904Y-41150333D02*
X156789523Y-41197952D01*
X156789523Y-41197952D02*
X156884761Y-41245571D01*
X156884761Y-41245571D02*
X157218094Y-41245571D01*
X155694285Y-41769380D02*
X156265713Y-41769380D01*
X155979999Y-41769380D02*
X155979999Y-40769380D01*
X155979999Y-40769380D02*
X156075237Y-40912238D01*
X156075237Y-40912238D02*
X156170475Y-41007476D01*
X156170475Y-41007476D02*
X156265713Y-41055095D01*
X190031666Y-42182142D02*
X190079285Y-42229761D01*
X190079285Y-42229761D02*
X190222142Y-42277380D01*
X190222142Y-42277380D02*
X190317380Y-42277380D01*
X190317380Y-42277380D02*
X190460237Y-42229761D01*
X190460237Y-42229761D02*
X190555475Y-42134523D01*
X190555475Y-42134523D02*
X190603094Y-42039285D01*
X190603094Y-42039285D02*
X190650713Y-41848809D01*
X190650713Y-41848809D02*
X190650713Y-41705952D01*
X190650713Y-41705952D02*
X190603094Y-41515476D01*
X190603094Y-41515476D02*
X190555475Y-41420238D01*
X190555475Y-41420238D02*
X190460237Y-41325000D01*
X190460237Y-41325000D02*
X190317380Y-41277380D01*
X190317380Y-41277380D02*
X190222142Y-41277380D01*
X190222142Y-41277380D02*
X190079285Y-41325000D01*
X190079285Y-41325000D02*
X190031666Y-41372619D01*
X189079285Y-42277380D02*
X189650713Y-42277380D01*
X189364999Y-42277380D02*
X189364999Y-41277380D01*
X189364999Y-41277380D02*
X189460237Y-41420238D01*
X189460237Y-41420238D02*
X189555475Y-41515476D01*
X189555475Y-41515476D02*
X189650713Y-41563095D01*
X173077094Y-90918380D02*
X173077094Y-89918380D01*
X173077094Y-89918380D02*
X172838999Y-89918380D01*
X172838999Y-89918380D02*
X172696142Y-89966000D01*
X172696142Y-89966000D02*
X172600904Y-90061238D01*
X172600904Y-90061238D02*
X172553285Y-90156476D01*
X172553285Y-90156476D02*
X172505666Y-90346952D01*
X172505666Y-90346952D02*
X172505666Y-90489809D01*
X172505666Y-90489809D02*
X172553285Y-90680285D01*
X172553285Y-90680285D02*
X172600904Y-90775523D01*
X172600904Y-90775523D02*
X172696142Y-90870761D01*
X172696142Y-90870761D02*
X172838999Y-90918380D01*
X172838999Y-90918380D02*
X173077094Y-90918380D01*
X171648523Y-89918380D02*
X171838999Y-89918380D01*
X171838999Y-89918380D02*
X171934237Y-89966000D01*
X171934237Y-89966000D02*
X171981856Y-90013619D01*
X171981856Y-90013619D02*
X172077094Y-90156476D01*
X172077094Y-90156476D02*
X172124713Y-90346952D01*
X172124713Y-90346952D02*
X172124713Y-90727904D01*
X172124713Y-90727904D02*
X172077094Y-90823142D01*
X172077094Y-90823142D02*
X172029475Y-90870761D01*
X172029475Y-90870761D02*
X171934237Y-90918380D01*
X171934237Y-90918380D02*
X171743761Y-90918380D01*
X171743761Y-90918380D02*
X171648523Y-90870761D01*
X171648523Y-90870761D02*
X171600904Y-90823142D01*
X171600904Y-90823142D02*
X171553285Y-90727904D01*
X171553285Y-90727904D02*
X171553285Y-90489809D01*
X171553285Y-90489809D02*
X171600904Y-90394571D01*
X171600904Y-90394571D02*
X171648523Y-90346952D01*
X171648523Y-90346952D02*
X171743761Y-90299333D01*
X171743761Y-90299333D02*
X171934237Y-90299333D01*
X171934237Y-90299333D02*
X172029475Y-90346952D01*
X172029475Y-90346952D02*
X172077094Y-90394571D01*
X172077094Y-90394571D02*
X172124713Y-90489809D01*
X192476285Y-90791380D02*
X192476285Y-89791380D01*
X192476285Y-89791380D02*
X192238190Y-89791380D01*
X192238190Y-89791380D02*
X192095333Y-89839000D01*
X192095333Y-89839000D02*
X192000095Y-89934238D01*
X192000095Y-89934238D02*
X191952476Y-90029476D01*
X191952476Y-90029476D02*
X191904857Y-90219952D01*
X191904857Y-90219952D02*
X191904857Y-90362809D01*
X191904857Y-90362809D02*
X191952476Y-90553285D01*
X191952476Y-90553285D02*
X192000095Y-90648523D01*
X192000095Y-90648523D02*
X192095333Y-90743761D01*
X192095333Y-90743761D02*
X192238190Y-90791380D01*
X192238190Y-90791380D02*
X192476285Y-90791380D01*
X190952476Y-90791380D02*
X191523904Y-90791380D01*
X191238190Y-90791380D02*
X191238190Y-89791380D01*
X191238190Y-89791380D02*
X191333428Y-89934238D01*
X191333428Y-89934238D02*
X191428666Y-90029476D01*
X191428666Y-90029476D02*
X191523904Y-90077095D01*
X190333428Y-89791380D02*
X190238190Y-89791380D01*
X190238190Y-89791380D02*
X190142952Y-89839000D01*
X190142952Y-89839000D02*
X190095333Y-89886619D01*
X190095333Y-89886619D02*
X190047714Y-89981857D01*
X190047714Y-89981857D02*
X190000095Y-90172333D01*
X190000095Y-90172333D02*
X190000095Y-90410428D01*
X190000095Y-90410428D02*
X190047714Y-90600904D01*
X190047714Y-90600904D02*
X190095333Y-90696142D01*
X190095333Y-90696142D02*
X190142952Y-90743761D01*
X190142952Y-90743761D02*
X190238190Y-90791380D01*
X190238190Y-90791380D02*
X190333428Y-90791380D01*
X190333428Y-90791380D02*
X190428666Y-90743761D01*
X190428666Y-90743761D02*
X190476285Y-90696142D01*
X190476285Y-90696142D02*
X190523904Y-90600904D01*
X190523904Y-90600904D02*
X190571523Y-90410428D01*
X190571523Y-90410428D02*
X190571523Y-90172333D01*
X190571523Y-90172333D02*
X190523904Y-89981857D01*
X190523904Y-89981857D02*
X190476285Y-89886619D01*
X190476285Y-89886619D02*
X190428666Y-89839000D01*
X190428666Y-89839000D02*
X190333428Y-89791380D01*
X175299666Y-40753380D02*
X175632999Y-40277190D01*
X175871094Y-40753380D02*
X175871094Y-39753380D01*
X175871094Y-39753380D02*
X175490142Y-39753380D01*
X175490142Y-39753380D02*
X175394904Y-39801000D01*
X175394904Y-39801000D02*
X175347285Y-39848619D01*
X175347285Y-39848619D02*
X175299666Y-39943857D01*
X175299666Y-39943857D02*
X175299666Y-40086714D01*
X175299666Y-40086714D02*
X175347285Y-40181952D01*
X175347285Y-40181952D02*
X175394904Y-40229571D01*
X175394904Y-40229571D02*
X175490142Y-40277190D01*
X175490142Y-40277190D02*
X175871094Y-40277190D01*
X174347285Y-40753380D02*
X174918713Y-40753380D01*
X174632999Y-40753380D02*
X174632999Y-39753380D01*
X174632999Y-39753380D02*
X174728237Y-39896238D01*
X174728237Y-39896238D02*
X174823475Y-39991476D01*
X174823475Y-39991476D02*
X174918713Y-40039095D01*
X190920666Y-45865142D02*
X190968285Y-45912761D01*
X190968285Y-45912761D02*
X191111142Y-45960380D01*
X191111142Y-45960380D02*
X191206380Y-45960380D01*
X191206380Y-45960380D02*
X191349237Y-45912761D01*
X191349237Y-45912761D02*
X191444475Y-45817523D01*
X191444475Y-45817523D02*
X191492094Y-45722285D01*
X191492094Y-45722285D02*
X191539713Y-45531809D01*
X191539713Y-45531809D02*
X191539713Y-45388952D01*
X191539713Y-45388952D02*
X191492094Y-45198476D01*
X191492094Y-45198476D02*
X191444475Y-45103238D01*
X191444475Y-45103238D02*
X191349237Y-45008000D01*
X191349237Y-45008000D02*
X191206380Y-44960380D01*
X191206380Y-44960380D02*
X191111142Y-44960380D01*
X191111142Y-44960380D02*
X190968285Y-45008000D01*
X190968285Y-45008000D02*
X190920666Y-45055619D01*
X190015904Y-44960380D02*
X190492094Y-44960380D01*
X190492094Y-44960380D02*
X190539713Y-45436571D01*
X190539713Y-45436571D02*
X190492094Y-45388952D01*
X190492094Y-45388952D02*
X190396856Y-45341333D01*
X190396856Y-45341333D02*
X190158761Y-45341333D01*
X190158761Y-45341333D02*
X190063523Y-45388952D01*
X190063523Y-45388952D02*
X190015904Y-45436571D01*
X190015904Y-45436571D02*
X189968285Y-45531809D01*
X189968285Y-45531809D02*
X189968285Y-45769904D01*
X189968285Y-45769904D02*
X190015904Y-45865142D01*
X190015904Y-45865142D02*
X190063523Y-45912761D01*
X190063523Y-45912761D02*
X190158761Y-45960380D01*
X190158761Y-45960380D02*
X190396856Y-45960380D01*
X190396856Y-45960380D02*
X190492094Y-45912761D01*
X190492094Y-45912761D02*
X190539713Y-45865142D01*
X173331094Y-110095380D02*
X173331094Y-109095380D01*
X173331094Y-109095380D02*
X173092999Y-109095380D01*
X173092999Y-109095380D02*
X172950142Y-109143000D01*
X172950142Y-109143000D02*
X172854904Y-109238238D01*
X172854904Y-109238238D02*
X172807285Y-109333476D01*
X172807285Y-109333476D02*
X172759666Y-109523952D01*
X172759666Y-109523952D02*
X172759666Y-109666809D01*
X172759666Y-109666809D02*
X172807285Y-109857285D01*
X172807285Y-109857285D02*
X172854904Y-109952523D01*
X172854904Y-109952523D02*
X172950142Y-110047761D01*
X172950142Y-110047761D02*
X173092999Y-110095380D01*
X173092999Y-110095380D02*
X173331094Y-110095380D01*
X172426332Y-109095380D02*
X171759666Y-109095380D01*
X171759666Y-109095380D02*
X172188237Y-110095380D01*
X154027094Y-90918380D02*
X154027094Y-89918380D01*
X154027094Y-89918380D02*
X153788999Y-89918380D01*
X153788999Y-89918380D02*
X153646142Y-89966000D01*
X153646142Y-89966000D02*
X153550904Y-90061238D01*
X153550904Y-90061238D02*
X153503285Y-90156476D01*
X153503285Y-90156476D02*
X153455666Y-90346952D01*
X153455666Y-90346952D02*
X153455666Y-90489809D01*
X153455666Y-90489809D02*
X153503285Y-90680285D01*
X153503285Y-90680285D02*
X153550904Y-90775523D01*
X153550904Y-90775523D02*
X153646142Y-90870761D01*
X153646142Y-90870761D02*
X153788999Y-90918380D01*
X153788999Y-90918380D02*
X154027094Y-90918380D01*
X153074713Y-90013619D02*
X153027094Y-89966000D01*
X153027094Y-89966000D02*
X152931856Y-89918380D01*
X152931856Y-89918380D02*
X152693761Y-89918380D01*
X152693761Y-89918380D02*
X152598523Y-89966000D01*
X152598523Y-89966000D02*
X152550904Y-90013619D01*
X152550904Y-90013619D02*
X152503285Y-90108857D01*
X152503285Y-90108857D02*
X152503285Y-90204095D01*
X152503285Y-90204095D02*
X152550904Y-90346952D01*
X152550904Y-90346952D02*
X153122332Y-90918380D01*
X153122332Y-90918380D02*
X152503285Y-90918380D01*
X165552285Y-53072380D02*
X165552285Y-52072380D01*
X165552285Y-52072380D02*
X165314190Y-52072380D01*
X165314190Y-52072380D02*
X165171333Y-52120000D01*
X165171333Y-52120000D02*
X165076095Y-52215238D01*
X165076095Y-52215238D02*
X165028476Y-52310476D01*
X165028476Y-52310476D02*
X164980857Y-52500952D01*
X164980857Y-52500952D02*
X164980857Y-52643809D01*
X164980857Y-52643809D02*
X165028476Y-52834285D01*
X165028476Y-52834285D02*
X165076095Y-52929523D01*
X165076095Y-52929523D02*
X165171333Y-53024761D01*
X165171333Y-53024761D02*
X165314190Y-53072380D01*
X165314190Y-53072380D02*
X165552285Y-53072380D01*
X164028476Y-53072380D02*
X164599904Y-53072380D01*
X164314190Y-53072380D02*
X164314190Y-52072380D01*
X164314190Y-52072380D02*
X164409428Y-52215238D01*
X164409428Y-52215238D02*
X164504666Y-52310476D01*
X164504666Y-52310476D02*
X164599904Y-52358095D01*
X163695142Y-52072380D02*
X163076095Y-52072380D01*
X163076095Y-52072380D02*
X163409428Y-52453333D01*
X163409428Y-52453333D02*
X163266571Y-52453333D01*
X163266571Y-52453333D02*
X163171333Y-52500952D01*
X163171333Y-52500952D02*
X163123714Y-52548571D01*
X163123714Y-52548571D02*
X163076095Y-52643809D01*
X163076095Y-52643809D02*
X163076095Y-52881904D01*
X163076095Y-52881904D02*
X163123714Y-52977142D01*
X163123714Y-52977142D02*
X163171333Y-53024761D01*
X163171333Y-53024761D02*
X163266571Y-53072380D01*
X163266571Y-53072380D02*
X163552285Y-53072380D01*
X163552285Y-53072380D02*
X163647523Y-53024761D01*
X163647523Y-53024761D02*
X163695142Y-52977142D01*
X154154094Y-129145380D02*
X154154094Y-128145380D01*
X154154094Y-128145380D02*
X153915999Y-128145380D01*
X153915999Y-128145380D02*
X153773142Y-128193000D01*
X153773142Y-128193000D02*
X153677904Y-128288238D01*
X153677904Y-128288238D02*
X153630285Y-128383476D01*
X153630285Y-128383476D02*
X153582666Y-128573952D01*
X153582666Y-128573952D02*
X153582666Y-128716809D01*
X153582666Y-128716809D02*
X153630285Y-128907285D01*
X153630285Y-128907285D02*
X153677904Y-129002523D01*
X153677904Y-129002523D02*
X153773142Y-129097761D01*
X153773142Y-129097761D02*
X153915999Y-129145380D01*
X153915999Y-129145380D02*
X154154094Y-129145380D01*
X152725523Y-128478714D02*
X152725523Y-129145380D01*
X152963618Y-128097761D02*
X153201713Y-128812047D01*
X153201713Y-128812047D02*
X152582666Y-128812047D01*
X154281094Y-110095380D02*
X154281094Y-109095380D01*
X154281094Y-109095380D02*
X154042999Y-109095380D01*
X154042999Y-109095380D02*
X153900142Y-109143000D01*
X153900142Y-109143000D02*
X153804904Y-109238238D01*
X153804904Y-109238238D02*
X153757285Y-109333476D01*
X153757285Y-109333476D02*
X153709666Y-109523952D01*
X153709666Y-109523952D02*
X153709666Y-109666809D01*
X153709666Y-109666809D02*
X153757285Y-109857285D01*
X153757285Y-109857285D02*
X153804904Y-109952523D01*
X153804904Y-109952523D02*
X153900142Y-110047761D01*
X153900142Y-110047761D02*
X154042999Y-110095380D01*
X154042999Y-110095380D02*
X154281094Y-110095380D01*
X153376332Y-109095380D02*
X152757285Y-109095380D01*
X152757285Y-109095380D02*
X153090618Y-109476333D01*
X153090618Y-109476333D02*
X152947761Y-109476333D01*
X152947761Y-109476333D02*
X152852523Y-109523952D01*
X152852523Y-109523952D02*
X152804904Y-109571571D01*
X152804904Y-109571571D02*
X152757285Y-109666809D01*
X152757285Y-109666809D02*
X152757285Y-109904904D01*
X152757285Y-109904904D02*
X152804904Y-110000142D01*
X152804904Y-110000142D02*
X152852523Y-110047761D01*
X152852523Y-110047761D02*
X152947761Y-110095380D01*
X152947761Y-110095380D02*
X153233475Y-110095380D01*
X153233475Y-110095380D02*
X153328713Y-110047761D01*
X153328713Y-110047761D02*
X153376332Y-110000142D01*
X160480333Y-56612571D02*
X160813666Y-56612571D01*
X160813666Y-57136380D02*
X160813666Y-56136380D01*
X160813666Y-56136380D02*
X160337476Y-56136380D01*
X159432714Y-57136380D02*
X160004142Y-57136380D01*
X159718428Y-57136380D02*
X159718428Y-56136380D01*
X159718428Y-56136380D02*
X159813666Y-56279238D01*
X159813666Y-56279238D02*
X159908904Y-56374476D01*
X159908904Y-56374476D02*
X160004142Y-56422095D01*
X168441666Y-47485380D02*
X168774999Y-47009190D01*
X169013094Y-47485380D02*
X169013094Y-46485380D01*
X169013094Y-46485380D02*
X168632142Y-46485380D01*
X168632142Y-46485380D02*
X168536904Y-46533000D01*
X168536904Y-46533000D02*
X168489285Y-46580619D01*
X168489285Y-46580619D02*
X168441666Y-46675857D01*
X168441666Y-46675857D02*
X168441666Y-46818714D01*
X168441666Y-46818714D02*
X168489285Y-46913952D01*
X168489285Y-46913952D02*
X168536904Y-46961571D01*
X168536904Y-46961571D02*
X168632142Y-47009190D01*
X168632142Y-47009190D02*
X169013094Y-47009190D01*
X168060713Y-46580619D02*
X168013094Y-46533000D01*
X168013094Y-46533000D02*
X167917856Y-46485380D01*
X167917856Y-46485380D02*
X167679761Y-46485380D01*
X167679761Y-46485380D02*
X167584523Y-46533000D01*
X167584523Y-46533000D02*
X167536904Y-46580619D01*
X167536904Y-46580619D02*
X167489285Y-46675857D01*
X167489285Y-46675857D02*
X167489285Y-46771095D01*
X167489285Y-46771095D02*
X167536904Y-46913952D01*
X167536904Y-46913952D02*
X168108332Y-47485380D01*
X168108332Y-47485380D02*
X167489285Y-47485380D01*
D11*
X149769200Y-59619200D02*
X144769200Y-59619200D01*
X149769200Y-62119200D02*
X149769200Y-59619200D01*
X144769200Y-59619200D02*
X144769200Y-62119200D01*
X144769200Y-62119200D02*
X149769200Y-62119200D01*
D12*
X150072400Y-47184000D02*
X144872400Y-47184000D01*
X150072400Y-52384000D02*
X150072400Y-47184000D01*
X144872400Y-47184000D02*
X144872400Y-52384000D01*
X144872400Y-52384000D02*
X150072400Y-52384000D01*
X148472400Y-49784000D02*
G75*
G03*
X148472400Y-49784000I-1000000J0D01*
G01*
D13*
X171243750Y-134122500D02*
X171243750Y-130112500D01*
X173243750Y-134122500D02*
X171243750Y-134122500D01*
X173243750Y-134122500D02*
X173243750Y-130112500D01*
X160046936Y-49503000D02*
X160501064Y-49503000D01*
X160046936Y-48033000D02*
X160501064Y-48033000D01*
X187679000Y-61714748D02*
X187679000Y-62237252D01*
X186209000Y-61714748D02*
X186209000Y-62237252D01*
X172473252Y-52678000D02*
X171950748Y-52678000D01*
X172473252Y-51208000D02*
X171950748Y-51208000D01*
X180587430Y-42385627D02*
X180587430Y-42908131D01*
X179117430Y-42385627D02*
X179117430Y-42908131D01*
X173108252Y-58447000D02*
X172585748Y-58447000D01*
X173108252Y-59917000D02*
X172585748Y-59917000D01*
X176804938Y-42925275D02*
X176804938Y-42402771D01*
X178274938Y-42925275D02*
X178274938Y-42402771D01*
X190293750Y-134122500D02*
X190293750Y-130112500D01*
X192293750Y-134122500D02*
X190293750Y-134122500D01*
X192293750Y-134122500D02*
X192293750Y-130112500D01*
X171243750Y-76972500D02*
X171243750Y-72962500D01*
X173243750Y-76972500D02*
X171243750Y-76972500D01*
X173243750Y-76972500D02*
X173243750Y-72962500D01*
X170089564Y-54710000D02*
X169635436Y-54710000D01*
X170089564Y-53240000D02*
X169635436Y-53240000D01*
X190293750Y-76972500D02*
X190293750Y-72962500D01*
X192293750Y-76972500D02*
X190293750Y-76972500D01*
X192293750Y-76972500D02*
X192293750Y-72962500D01*
X191408063Y-59278011D02*
X191408063Y-59732139D01*
X189938063Y-59278011D02*
X189938063Y-59732139D01*
X190293750Y-115072500D02*
X190293750Y-111062500D01*
X192293750Y-115072500D02*
X190293750Y-115072500D01*
X192293750Y-115072500D02*
X192293750Y-111062500D01*
X186521180Y-44896879D02*
X181121180Y-44896879D01*
X186521180Y-40396879D02*
X186521180Y-44896879D01*
D12*
X177387500Y-48006250D02*
X177387500Y-48681250D01*
X177387500Y-48006250D02*
X178062500Y-48006250D01*
X177387500Y-57781250D02*
X176112500Y-57781250D01*
X177387500Y-58356250D02*
X177387500Y-57781250D01*
X177387500Y-58356250D02*
X178062500Y-58356250D01*
X187737500Y-48006250D02*
X187062500Y-48006250D01*
X187737500Y-48006250D02*
X187737500Y-48681250D01*
X187737500Y-58356250D02*
X187062500Y-58356250D01*
X187737500Y-58356250D02*
X187737500Y-57681250D01*
D13*
X152193750Y-76972500D02*
X152193750Y-72962500D01*
X154193750Y-76972500D02*
X152193750Y-76972500D01*
X154193750Y-76972500D02*
X154193750Y-72962500D01*
X169635436Y-55621250D02*
X170089564Y-55621250D01*
X169635436Y-57091250D02*
X170089564Y-57091250D01*
X179297000Y-61968748D02*
X179297000Y-62491252D01*
X177827000Y-61968748D02*
X177827000Y-62491252D01*
X188568000Y-41775748D02*
X188568000Y-42298252D01*
X187098000Y-41775748D02*
X187098000Y-42298252D01*
X171243750Y-96022500D02*
X171243750Y-92012500D01*
X173243750Y-96022500D02*
X171243750Y-96022500D01*
X173243750Y-96022500D02*
X173243750Y-92012500D01*
X190293750Y-96022500D02*
X190293750Y-92012500D01*
X192293750Y-96022500D02*
X190293750Y-96022500D01*
X192293750Y-96022500D02*
X192293750Y-92012500D01*
X175921280Y-42454266D02*
X175921280Y-42908394D01*
X174451280Y-42454266D02*
X174451280Y-42908394D01*
X189989982Y-48015340D02*
X189989982Y-47492836D01*
X191459982Y-48015340D02*
X191459982Y-47492836D01*
X171243750Y-115072500D02*
X171243750Y-111062500D01*
X173243750Y-115072500D02*
X171243750Y-115072500D01*
X173243750Y-115072500D02*
X173243750Y-111062500D01*
X152193750Y-96022500D02*
X152193750Y-92012500D01*
X154193750Y-96022500D02*
X152193750Y-96022500D01*
X154193750Y-96022500D02*
X154193750Y-92012500D01*
X164956250Y-51566250D02*
X163656250Y-51566250D01*
X163656250Y-48446250D02*
X165656250Y-48446250D01*
X152193750Y-134122500D02*
X152193750Y-130112500D01*
X154193750Y-134122500D02*
X152193750Y-134122500D01*
X154193750Y-134122500D02*
X154193750Y-130112500D01*
X152193750Y-115072500D02*
X152193750Y-111062500D01*
X154193750Y-115072500D02*
X152193750Y-115072500D01*
X154193750Y-115072500D02*
X154193750Y-111062500D01*
X159364000Y-54043664D02*
X159364000Y-52839536D01*
X161184000Y-54043664D02*
X161184000Y-52839536D01*
X168502064Y-49503000D02*
X168047936Y-49503000D01*
X168502064Y-48033000D02*
X168047936Y-48033000D01*
%LPC*%
D14*
X154781250Y-65087500D03*
X173831250Y-65087500D03*
X173831250Y-122237500D03*
X154781250Y-122237500D03*
D15*
X178276250Y-131762500D03*
D16*
X179546250Y-129222500D03*
D17*
X183356250Y-131762500D03*
D16*
X185896250Y-126682500D03*
D15*
X188436250Y-131762500D03*
D18*
X176271249Y-129222499D03*
X189198249Y-126682499D03*
D15*
X178276250Y-74612500D03*
D16*
X179546250Y-72072500D03*
D17*
X183356250Y-74612500D03*
D16*
X185896250Y-69532500D03*
D15*
X188436250Y-74612500D03*
D18*
X176271249Y-72072499D03*
X189198249Y-69532499D03*
D15*
X140176250Y-112712500D03*
D16*
X141446250Y-110172500D03*
D17*
X145256250Y-112712500D03*
D16*
X147796250Y-107632500D03*
D15*
X150336250Y-112712500D03*
D18*
X138171249Y-110172499D03*
X151098249Y-107632499D03*
D15*
X159226250Y-131762500D03*
D16*
X160496250Y-129222500D03*
D17*
X164306250Y-131762500D03*
D16*
X166846250Y-126682500D03*
D15*
X169386250Y-131762500D03*
D18*
X157221249Y-129222499D03*
X170148249Y-126682499D03*
D15*
X178276250Y-93662500D03*
D16*
X179546250Y-91122500D03*
D17*
X183356250Y-93662500D03*
D16*
X185896250Y-88582500D03*
D15*
X188436250Y-93662500D03*
D18*
X176271249Y-91122499D03*
X189198249Y-88582499D03*
D19*
X148539200Y-55829200D03*
X145999200Y-55829200D03*
X148539200Y-58369200D03*
X145999200Y-58369200D03*
X148539200Y-60909200D03*
D20*
X145999199Y-60909199D03*
D15*
X159226250Y-112712500D03*
D16*
X160496250Y-110172500D03*
D17*
X164306250Y-112712500D03*
D16*
X166846250Y-107632500D03*
D15*
X169386250Y-112712500D03*
D18*
X157221249Y-110172499D03*
X170148249Y-107632499D03*
D15*
X140176250Y-74612500D03*
D16*
X141446250Y-72072500D03*
D17*
X145256250Y-74612500D03*
D16*
X147796250Y-69532500D03*
D15*
X150336250Y-74612500D03*
D18*
X138171249Y-72072499D03*
X151098249Y-69532499D03*
D15*
X159226250Y-93662500D03*
D16*
X160496250Y-91122500D03*
D17*
X164306250Y-93662500D03*
D16*
X166846250Y-88582500D03*
D15*
X169386250Y-93662500D03*
D18*
X157221249Y-91122499D03*
X170148249Y-88582499D03*
D15*
X178276250Y-112712500D03*
D16*
X179546250Y-110172500D03*
D17*
X183356250Y-112712500D03*
D16*
X185896250Y-107632500D03*
D15*
X188436250Y-112712500D03*
D18*
X176271249Y-110172499D03*
X189198249Y-107632499D03*
D15*
X140176250Y-131762500D03*
D16*
X141446250Y-129222500D03*
D17*
X145256250Y-131762500D03*
D16*
X147796250Y-126682500D03*
D15*
X150336250Y-131762500D03*
D18*
X138171249Y-129222499D03*
X151098249Y-126682499D03*
D21*
X144372399Y-51633999D03*
X150572399Y-47933999D03*
X144372399Y-47933999D03*
X150572399Y-51633999D03*
D15*
X140176250Y-93662500D03*
D16*
X141446250Y-91122500D03*
D17*
X145256250Y-93662500D03*
D16*
X147796250Y-88582500D03*
D15*
X150336250Y-93662500D03*
D18*
X138171249Y-91122499D03*
X151098249Y-88582499D03*
D15*
X159226250Y-74612500D03*
D16*
X160496250Y-72072500D03*
D17*
X164306250Y-74612500D03*
D16*
X166846250Y-69532500D03*
D15*
X169386250Y-74612500D03*
D18*
X157221249Y-72072499D03*
X170148249Y-69532499D03*
D22*
X172243750Y-133412500D03*
X172243750Y-130112500D03*
D23*
X161186500Y-48768000D03*
X159361500Y-48768000D03*
D24*
X186944000Y-61026000D03*
X186944000Y-62926000D03*
D25*
X173162000Y-51943000D03*
X171262000Y-51943000D03*
D24*
X179852430Y-41696879D03*
X179852430Y-43596879D03*
D25*
X171897000Y-59182000D03*
X173797000Y-59182000D03*
D26*
X177539938Y-43614023D03*
X177539938Y-41714023D03*
D22*
X191293750Y-133412500D03*
X191293750Y-130112500D03*
X172243750Y-76262500D03*
X172243750Y-72962500D03*
D27*
X170775000Y-53975000D03*
X168950000Y-53975000D03*
D22*
X191293750Y-76262500D03*
X191293750Y-72962500D03*
D28*
X190673063Y-58592575D03*
X190673063Y-60417575D03*
D22*
X191293750Y-114362500D03*
X191293750Y-111062500D03*
D29*
X185271179Y-43796878D03*
X182371179Y-43796878D03*
X182371179Y-41496878D03*
X185271179Y-41496878D03*
D30*
X176862499Y-57181249D03*
X176862499Y-56381249D03*
X176862499Y-55581249D03*
X176862499Y-54781249D03*
X176862499Y-53981249D03*
X176862499Y-53181249D03*
X176862499Y-52381249D03*
X176862499Y-51581249D03*
X176862499Y-50781249D03*
X176862499Y-49981249D03*
X176862499Y-49181249D03*
D31*
X178562499Y-47481249D03*
X179362499Y-47481249D03*
X180162499Y-47481249D03*
X180962499Y-47481249D03*
X181762499Y-47481249D03*
X182562499Y-47481249D03*
X183362499Y-47481249D03*
X184162499Y-47481249D03*
X184962499Y-47481249D03*
X185762499Y-47481249D03*
X186562499Y-47481249D03*
D30*
X188262499Y-49181249D03*
X188262499Y-49981249D03*
X188262499Y-50781249D03*
X188262499Y-51581249D03*
X188262499Y-52381249D03*
X188262499Y-53181249D03*
X188262499Y-53981249D03*
X188262499Y-54781249D03*
X188262499Y-55581249D03*
X188262499Y-56381249D03*
X188262499Y-57181249D03*
D31*
X186562499Y-58881249D03*
X185762499Y-58881249D03*
X184962499Y-58881249D03*
X184162499Y-58881249D03*
X183362499Y-58881249D03*
X182562499Y-58881249D03*
X181762499Y-58881249D03*
X180962499Y-58881249D03*
X180162499Y-58881249D03*
X179362499Y-58881249D03*
X178562499Y-58881249D03*
D22*
X153193750Y-76262500D03*
X153193750Y-72962500D03*
D23*
X168950000Y-56356250D03*
X170775000Y-56356250D03*
D24*
X178562000Y-61280000D03*
X178562000Y-63180000D03*
D32*
X161416250Y-42940000D03*
X167196250Y-42940000D03*
D33*
X161081249Y-44884999D03*
X161856249Y-44884999D03*
D34*
X162556249Y-44884999D03*
X163056249Y-44884999D03*
X163556249Y-44884999D03*
X164056249Y-44884999D03*
X164556249Y-44884999D03*
X165056249Y-44884999D03*
X165556249Y-44884999D03*
X166056249Y-44884999D03*
D33*
X166756249Y-44884999D03*
X167531249Y-44884999D03*
D24*
X187833000Y-41087000D03*
X187833000Y-42987000D03*
D22*
X172243750Y-95312500D03*
X172243750Y-92012500D03*
X191293750Y-95312500D03*
X191293750Y-92012500D03*
D28*
X175186280Y-41768830D03*
X175186280Y-43593830D03*
D26*
X190724982Y-48704088D03*
X190724982Y-46804088D03*
D22*
X172243750Y-114362500D03*
X172243750Y-111062500D03*
X153193750Y-95312500D03*
X153193750Y-92012500D03*
D35*
X165306249Y-49256249D03*
D36*
X165306249Y-50956249D03*
X163306249Y-50956249D03*
X163306249Y-49056249D03*
D22*
X153193750Y-133412500D03*
X153193750Y-130112500D03*
X153193750Y-114362500D03*
X153193750Y-111062500D03*
D37*
X160274000Y-54929100D03*
X160274000Y-51954100D03*
D27*
X169187500Y-48768000D03*
X167362500Y-48768000D03*
M02*
