M48
; DRILL file {KiCad (7.0.0)} date Sat Mar 11 22:06:09 2023
; FORMAT={-:-/ absolute / metric / decimal}
; #@! TF.CreationDate,2023-03-11T22:06:09-05:00
; #@! TF.GenerationSoftware,Kicad,Pcbnew,(7.0.0)
; #@! TF.FileFunction,NonPlated,1,2,NPTH
FMAT,2
METRIC
; #@! TA.AperFunction,NonPlated,NPTH,ComponentDrill
T1C0.650
; #@! TA.AperFunction,NonPlated,NPTH,ComponentDrill
T2C1.750
; #@! TA.AperFunction,NonPlated,NPTH,ComponentDrill
T3C2.700
; #@! TA.AperFunction,NonPlated,NPTH,ComponentDrill
T4C3.000
; #@! TA.AperFunction,NonPlated,NPTH,ComponentDrill
T5C3.988
%
G90
G05
T1
X161.416Y-42.94
X167.196Y-42.94
T2
X140.176Y-74.612
X140.176Y-93.662
X140.176Y-112.712
X140.176Y-131.762
X150.336Y-74.612
X150.336Y-93.662
X150.336Y-112.712
X150.336Y-131.762
X159.226Y-74.612
X159.226Y-93.662
X159.226Y-112.712
X159.226Y-131.762
X169.386Y-74.612
X169.386Y-93.662
X169.386Y-112.712
X169.386Y-131.762
X178.276Y-74.612
X178.276Y-93.662
X178.276Y-112.712
X178.276Y-131.762
X188.436Y-74.612
X188.436Y-93.662
X188.436Y-112.712
X188.436Y-131.762
T3
X154.781Y-65.087
X154.781Y-122.237
X173.831Y-65.087
X173.831Y-122.237
T4
X141.446Y-72.072
X141.446Y-91.123
X141.446Y-110.172
X141.446Y-129.222
X147.796Y-69.532
X147.796Y-88.582
X147.796Y-107.632
X147.796Y-126.682
X160.496Y-72.072
X160.496Y-91.123
X160.496Y-110.172
X160.496Y-129.222
X166.846Y-69.532
X166.846Y-88.582
X166.846Y-107.632
X166.846Y-126.682
X179.546Y-72.072
X179.546Y-91.123
X179.546Y-110.172
X179.546Y-129.222
X185.896Y-69.532
X185.896Y-88.582
X185.896Y-107.632
X185.896Y-126.682
T5
X145.256Y-74.612
X145.256Y-93.662
X145.256Y-112.712
X145.256Y-131.762
X164.306Y-74.612
X164.306Y-93.662
X164.306Y-112.712
X164.306Y-131.762
X183.356Y-74.612
X183.356Y-93.662
X183.356Y-112.712
X183.356Y-131.762
T0
M30
