G04 #@! TF.GenerationSoftware,KiCad,Pcbnew,(7.0.0)*
G04 #@! TF.CreationDate,2023-03-11T22:05:33-05:00*
G04 #@! TF.ProjectId,MacroPad,4d616372-6f50-4616-942e-6b696361645f,rev?*
G04 #@! TF.SameCoordinates,Original*
G04 #@! TF.FileFunction,Paste,Bot*
G04 #@! TF.FilePolarity,Positive*
%FSLAX46Y46*%
G04 Gerber Fmt 4.6, Leading zero omitted, Abs format (unit mm)*
G04 Created by KiCad (PCBNEW (7.0.0)) date 2023-03-11 22:05:33*
%MOMM*%
%LPD*%
G01*
G04 APERTURE LIST*
G04 Aperture macros list*
%AMRoundRect*
0 Rectangle with rounded corners*
0 $1 Rounding radius*
0 $2 $3 $4 $5 $6 $7 $8 $9 X,Y pos of 4 corners*
0 Add a 4 corners polygon primitive as box body*
4,1,4,$2,$3,$4,$5,$6,$7,$8,$9,$2,$3,0*
0 Add four circle primitives for the rounded corners*
1,1,$1+$1,$2,$3*
1,1,$1+$1,$4,$5*
1,1,$1+$1,$6,$7*
1,1,$1+$1,$8,$9*
0 Add four rect primitives between the rounded corners*
20,1,$1+$1,$2,$3,$4,$5,0*
20,1,$1+$1,$4,$5,$6,$7,0*
20,1,$1+$1,$6,$7,$8,$9,0*
20,1,$1+$1,$8,$9,$2,$3,0*%
G04 Aperture macros list end*
%ADD10R,2.550000X2.500000*%
%ADD11R,1.800000X1.100000*%
%ADD12RoundRect,0.225000X0.375000X-0.225000X0.375000X0.225000X-0.375000X0.225000X-0.375000X-0.225000X0*%
%ADD13RoundRect,0.250000X-0.262500X-0.450000X0.262500X-0.450000X0.262500X0.450000X-0.262500X0.450000X0*%
%ADD14RoundRect,0.250000X-0.475000X0.250000X-0.475000X-0.250000X0.475000X-0.250000X0.475000X0.250000X0*%
%ADD15RoundRect,0.250000X0.250000X0.475000X-0.250000X0.475000X-0.250000X-0.475000X0.250000X-0.475000X0*%
%ADD16RoundRect,0.250000X0.475000X-0.250000X0.475000X0.250000X-0.475000X0.250000X-0.475000X-0.250000X0*%
%ADD17RoundRect,0.250000X0.262500X0.450000X-0.262500X0.450000X-0.262500X-0.450000X0.262500X-0.450000X0*%
%ADD18RoundRect,0.250000X-0.450000X0.262500X-0.450000X-0.262500X0.450000X-0.262500X0.450000X0.262500X0*%
%ADD19R,2.100000X1.800000*%
%ADD20R,1.500000X0.550000*%
%ADD21R,0.550000X1.500000*%
%ADD22R,0.600000X2.450000*%
%ADD23R,0.300000X2.450000*%
%ADD24R,0.700000X1.000000*%
%ADD25R,0.700000X0.600000*%
%ADD26RoundRect,0.250001X0.624999X-0.462499X0.624999X0.462499X-0.624999X0.462499X-0.624999X-0.462499X0*%
G04 APERTURE END LIST*
D10*
X176271249Y-129222499D03*
X189198249Y-126682499D03*
X176271249Y-72072499D03*
X189198249Y-69532499D03*
X138171249Y-110172499D03*
X151098249Y-107632499D03*
X157221249Y-129222499D03*
X170148249Y-126682499D03*
X176271249Y-91122499D03*
X189198249Y-88582499D03*
X157221249Y-110172499D03*
X170148249Y-107632499D03*
X138171249Y-72072499D03*
X151098249Y-69532499D03*
X157221249Y-91122499D03*
X170148249Y-88582499D03*
X176271249Y-110172499D03*
X189198249Y-107632499D03*
X138171249Y-129222499D03*
X151098249Y-126682499D03*
D11*
X144372399Y-51633999D03*
X150572399Y-47933999D03*
X144372399Y-47933999D03*
X150572399Y-51633999D03*
D10*
X138171249Y-91122499D03*
X151098249Y-88582499D03*
X157221249Y-72072499D03*
X170148249Y-69532499D03*
D12*
X172243750Y-133412500D03*
X172243750Y-130112500D03*
D13*
X161186500Y-48768000D03*
X159361500Y-48768000D03*
D14*
X186944000Y-61026000D03*
X186944000Y-62926000D03*
D15*
X173162000Y-51943000D03*
X171262000Y-51943000D03*
D14*
X179852430Y-41696879D03*
X179852430Y-43596879D03*
D15*
X171897000Y-59182000D03*
X173797000Y-59182000D03*
D16*
X177539938Y-43614023D03*
X177539938Y-41714023D03*
D12*
X191293750Y-133412500D03*
X191293750Y-130112500D03*
X172243750Y-76262500D03*
X172243750Y-72962500D03*
D17*
X170775000Y-53975000D03*
X168950000Y-53975000D03*
D12*
X191293750Y-76262500D03*
X191293750Y-72962500D03*
D18*
X190673063Y-58592575D03*
X190673063Y-60417575D03*
D12*
X191293750Y-114362500D03*
X191293750Y-111062500D03*
D19*
X185271179Y-43796878D03*
X182371179Y-43796878D03*
X182371179Y-41496878D03*
X185271179Y-41496878D03*
D20*
X176862499Y-57181249D03*
X176862499Y-56381249D03*
X176862499Y-55581249D03*
X176862499Y-54781249D03*
X176862499Y-53981249D03*
X176862499Y-53181249D03*
X176862499Y-52381249D03*
X176862499Y-51581249D03*
X176862499Y-50781249D03*
X176862499Y-49981249D03*
X176862499Y-49181249D03*
D21*
X178562499Y-47481249D03*
X179362499Y-47481249D03*
X180162499Y-47481249D03*
X180962499Y-47481249D03*
X181762499Y-47481249D03*
X182562499Y-47481249D03*
X183362499Y-47481249D03*
X184162499Y-47481249D03*
X184962499Y-47481249D03*
X185762499Y-47481249D03*
X186562499Y-47481249D03*
D20*
X188262499Y-49181249D03*
X188262499Y-49981249D03*
X188262499Y-50781249D03*
X188262499Y-51581249D03*
X188262499Y-52381249D03*
X188262499Y-53181249D03*
X188262499Y-53981249D03*
X188262499Y-54781249D03*
X188262499Y-55581249D03*
X188262499Y-56381249D03*
X188262499Y-57181249D03*
D21*
X186562499Y-58881249D03*
X185762499Y-58881249D03*
X184962499Y-58881249D03*
X184162499Y-58881249D03*
X183362499Y-58881249D03*
X182562499Y-58881249D03*
X181762499Y-58881249D03*
X180962499Y-58881249D03*
X180162499Y-58881249D03*
X179362499Y-58881249D03*
X178562499Y-58881249D03*
D12*
X153193750Y-76262500D03*
X153193750Y-72962500D03*
D13*
X168950000Y-56356250D03*
X170775000Y-56356250D03*
D14*
X178562000Y-61280000D03*
X178562000Y-63180000D03*
D22*
X161081249Y-44884999D03*
X161856249Y-44884999D03*
D23*
X162556249Y-44884999D03*
X163056249Y-44884999D03*
X163556249Y-44884999D03*
X164056249Y-44884999D03*
X164556249Y-44884999D03*
X165056249Y-44884999D03*
X165556249Y-44884999D03*
X166056249Y-44884999D03*
D22*
X166756249Y-44884999D03*
X167531249Y-44884999D03*
D14*
X187833000Y-41087000D03*
X187833000Y-42987000D03*
D12*
X172243750Y-95312500D03*
X172243750Y-92012500D03*
X191293750Y-95312500D03*
X191293750Y-92012500D03*
D18*
X175186280Y-41768830D03*
X175186280Y-43593830D03*
D16*
X190724982Y-48704088D03*
X190724982Y-46804088D03*
D12*
X172243750Y-114362500D03*
X172243750Y-111062500D03*
X153193750Y-95312500D03*
X153193750Y-92012500D03*
D24*
X165306249Y-49256249D03*
D25*
X165306249Y-50956249D03*
X163306249Y-50956249D03*
X163306249Y-49056249D03*
D12*
X153193750Y-133412500D03*
X153193750Y-130112500D03*
X153193750Y-114362500D03*
X153193750Y-111062500D03*
D26*
X160274000Y-54929100D03*
X160274000Y-51954100D03*
D17*
X169187500Y-48768000D03*
X167362500Y-48768000D03*
M02*
