G04 #@! TF.GenerationSoftware,KiCad,Pcbnew,(7.0.0)*
G04 #@! TF.CreationDate,2023-03-11T22:05:33-05:00*
G04 #@! TF.ProjectId,MacroPad,4d616372-6f50-4616-942e-6b696361645f,rev?*
G04 #@! TF.SameCoordinates,Original*
G04 #@! TF.FileFunction,Legend,Top*
G04 #@! TF.FilePolarity,Positive*
%FSLAX46Y46*%
G04 Gerber Fmt 4.6, Leading zero omitted, Abs format (unit mm)*
G04 Created by KiCad (PCBNEW (7.0.0)) date 2023-03-11 22:05:33*
%MOMM*%
%LPD*%
G01*
G04 APERTURE LIST*
%ADD10C,2.700000*%
%ADD11C,1.750000*%
%ADD12C,3.000000*%
%ADD13C,3.987800*%
%ADD14C,0.650000*%
%ADD15O,1.000000X1.600000*%
%ADD16O,1.000000X2.100000*%
G04 APERTURE END LIST*
%LPC*%
D10*
X154781250Y-65087500D03*
X173831250Y-65087500D03*
X173831250Y-122237500D03*
X154781250Y-122237500D03*
D11*
X178276250Y-131762500D03*
D12*
X179546250Y-129222500D03*
D13*
X183356250Y-131762500D03*
D12*
X185896250Y-126682500D03*
D11*
X188436250Y-131762500D03*
X178276250Y-74612500D03*
D12*
X179546250Y-72072500D03*
D13*
X183356250Y-74612500D03*
D12*
X185896250Y-69532500D03*
D11*
X188436250Y-74612500D03*
X140176250Y-112712500D03*
D12*
X141446250Y-110172500D03*
D13*
X145256250Y-112712500D03*
D12*
X147796250Y-107632500D03*
D11*
X150336250Y-112712500D03*
X159226250Y-131762500D03*
D12*
X160496250Y-129222500D03*
D13*
X164306250Y-131762500D03*
D12*
X166846250Y-126682500D03*
D11*
X169386250Y-131762500D03*
X178276250Y-93662500D03*
D12*
X179546250Y-91122500D03*
D13*
X183356250Y-93662500D03*
D12*
X185896250Y-88582500D03*
D11*
X188436250Y-93662500D03*
X159226250Y-112712500D03*
D12*
X160496250Y-110172500D03*
D13*
X164306250Y-112712500D03*
D12*
X166846250Y-107632500D03*
D11*
X169386250Y-112712500D03*
X140176250Y-74612500D03*
D12*
X141446250Y-72072500D03*
D13*
X145256250Y-74612500D03*
D12*
X147796250Y-69532500D03*
D11*
X150336250Y-74612500D03*
X159226250Y-93662500D03*
D12*
X160496250Y-91122500D03*
D13*
X164306250Y-93662500D03*
D12*
X166846250Y-88582500D03*
D11*
X169386250Y-93662500D03*
X178276250Y-112712500D03*
D12*
X179546250Y-110172500D03*
D13*
X183356250Y-112712500D03*
D12*
X185896250Y-107632500D03*
D11*
X188436250Y-112712500D03*
X140176250Y-131762500D03*
D12*
X141446250Y-129222500D03*
D13*
X145256250Y-131762500D03*
D12*
X147796250Y-126682500D03*
D11*
X150336250Y-131762500D03*
X140176250Y-93662500D03*
D12*
X141446250Y-91122500D03*
D13*
X145256250Y-93662500D03*
D12*
X147796250Y-88582500D03*
D11*
X150336250Y-93662500D03*
X159226250Y-74612500D03*
D12*
X160496250Y-72072500D03*
D13*
X164306250Y-74612500D03*
D12*
X166846250Y-69532500D03*
D11*
X169386250Y-74612500D03*
D14*
X161416250Y-42940000D03*
X167196250Y-42940000D03*
D15*
X159986249Y-39289999D03*
D16*
X159986249Y-43469999D03*
D15*
X168626249Y-39289999D03*
D16*
X168626249Y-43469999D03*
M02*
