M48
; DRILL file {KiCad (7.0.0)} date Sat Mar 11 22:06:09 2023
; FORMAT={-:-/ absolute / metric / decimal}
; #@! TF.CreationDate,2023-03-11T22:06:09-05:00
; #@! TF.GenerationSoftware,Kicad,Pcbnew,(7.0.0)
; #@! TF.FileFunction,Plated,1,2,PTH
FMAT,2
METRIC
; #@! TA.AperFunction,Plated,PTH,ViaDrill
T1C0.400
; #@! TA.AperFunction,Plated,PTH,ComponentDrill
T2C0.600
; #@! TA.AperFunction,Plated,PTH,ComponentDrill
T3C1.000
%
G90
G05
T1
X137.668Y-63.373
X138.049Y-58.42
X138.303Y-51.562
X139.192Y-45.339
X140.335Y-40.64
X141.605Y-54.356
X141.859Y-48.895
X143.129Y-62.103
X143.383Y-44.196
X146.939Y-63.881
X147.32Y-48.006
X147.701Y-40.132
X148.59Y-43.434
X152.527Y-39.751
X152.908Y-45.085
X153.213Y-77.978
X153.213Y-96.876
X153.213Y-116.078
X153.289Y-63.246
X153.416Y-59.309
X155.956Y-44.069
X157.099Y-41.402
X157.226Y-53.086
X157.353Y-56.769
X157.861Y-60.325
X157.861Y-63.119
X161.544Y-62.357
X162.103Y-47.193
X162.179Y-54.916
X162.433Y-58.674
X162.814Y-39.497
X163.957Y-60.198
X165.862Y-41.148
X166.624Y-63.881
X166.751Y-53.594
X166.878Y-57.023
X166.929Y-46.99
X167.894Y-51.435
X169.037Y-59.182
X169.418Y-63.627
X170.953Y-46.818
X171.323Y-42.799
X171.45Y-39.243
X171.952Y-46.781
X172.212Y-77.978
X172.212Y-96.876
X172.212Y-116.078
X172.72Y-53.721
X172.961Y-46.799
X173.228Y-56.515
X174.041Y-46.787
X174.498Y-53.975
X174.498Y-62.738
X175.006Y-51.689
X176.022Y-39.243
X176.149Y-64.008
X176.345Y-43.619
X176.53Y-61.341
X179.959Y-49.911
X179.959Y-51.562
X179.959Y-53.721
X179.959Y-55.372
X180.721Y-39.243
X181.737Y-53.721
X181.864Y-51.435
X181.864Y-55.372
X183.896Y-51.435
X183.896Y-53.721
X183.896Y-55.372
X184.023Y-49.657
X185.293Y-61.214
X185.674Y-53.721
X185.674Y-55.372
X185.801Y-51.435
X187.96Y-47.117
X189.357Y-39.243
X189.865Y-44.958
X189.865Y-63.754
X190.119Y-52.832
X191.211Y-115.976
X191.313Y-77.876
X191.313Y-96.825
X191.389Y-42.164
X191.389Y-50.673
X191.897Y-62.103
X192.024Y-57.023
T3
X145.999Y-55.829
X145.999Y-58.369
X145.999Y-60.909
X148.539Y-55.829
X148.539Y-58.369
X148.539Y-60.909
T2
X159.986Y-38.99G85X159.986Y-39.59
G05
X159.986Y-42.92G85X159.986Y-44.02
G05
X168.626Y-38.99G85X168.626Y-39.59
G05
X168.626Y-42.92G85X168.626Y-44.02
G05
T0
M30
